<svg xmlns="http://www.w3.org/2000/svg" width="28" height="28" viewBox="0 0 28 28">
    <path fill="#FFBF00" fill-rule="nonzero" d="M15.168 0C9.25 0 4.427 2.064 1.938 5.663.77 7.353.122 9.356.016 11.613c-.095 2.009.243 4.232 1.004 6.624 2.597-7.78 9.852-13.87 18.217-13.87 0 0-7.827 2.056-12.748 8.43a18.437 18.437 0 0 0-2.674 4.76A26.913 26.913 0 0 0 1.712 28h3.505s-.533-3.344.393-7.188c1.53.206 2.898.31 4.13.31 3.223 0 5.514-.697 7.212-2.192 1.521-1.34 2.36-3.14 3.25-5.046 1.356-2.91 2.893-6.21 7.356-8.756a.874.874 0 0 0 .095-1.459C24.62 1.371 19.954 0 15.168 0z"/>
</svg>
