<?xml version="1.0" encoding="utf-8"?>
<!-- Generator: Adobe Illustrator 25.0.1, SVG Export Plug-In . SVG Version: 6.00 Build 0)  -->
<svg version="1.1" id="Ebene_1" xmlns="http://www.w3.org/2000/svg" xmlns:xlink="http://www.w3.org/1999/xlink" x="0px" y="0px"
	 viewBox="0 0 437 437" style="enable-background:new 0 0 437 437;" xml:space="preserve">
<style type="text/css">
	.st0{fill:#FFFFFF;}
	.st1{fill:#F44336;}
</style>
<g>
	<path class="st0" d="M244.8,293h-69.6v-9.4c0-10.5,2.1-19.9,6.4-28c4.2-8.2,13.2-18.5,26.8-31.1l12.3-11.2
		c7.3-6.7,12.7-13,16.1-18.9c3.4-5.9,5.1-11.8,5.1-17.7c0-9-3.1-16-9.2-21.1c-6.2-5.1-14.8-7.6-25.8-7.6c-10.4,0-21.6,2.2-33.7,6.5
		c-12.1,4.3-24.7,10.7-37.8,19.2v-60.5c15.5-5.4,29.7-9.4,42.6-11.9c12.8-2.6,25.2-3.9,37.2-3.9c31.3,0,55.2,6.4,71.7,19.2
		c16.4,12.8,24.7,31.4,24.7,56c0,12.6-2.5,23.9-7.5,33.8c-5,10-13.6,20.6-25.6,32.1l-12.3,11c-8.7,8-14.5,14.4-17.1,19.2
		c-2.7,4.8-4,10.1-4,15.9V293z M175.2,321.5h69.6v68.6h-69.6V321.5z"/>
</g>
<circle class="st1" cx="218.5" cy="218.5" r="218.5"/>
<g>
	
		<rect x="185.9" y="87.4" transform="matrix(0.7071 -0.7071 0.7071 0.7071 -90.4671 218.6368)" class="st0" width="65.5" height="262.2"/>
	
		<rect x="87.4" y="185.9" transform="matrix(0.7071 -0.7071 0.7071 0.7071 -90.6323 218.5664)" class="st0" width="262.2" height="65.5"/>
</g>
</svg>
