<svg width="116" height="327" viewBox="0 0 116 327" fill="none" xmlns="http://www.w3.org/2000/svg">
<g clip-path="url(#clip0_40_15327)">
<path opacity="0.3" d="M56.4303 278.309C56.4303 278.309 -5.37968 287.07 1.43031 304.11C8.24031 321.15 17.9803 333.799 39.4303 321.63C60.8803 309.46 71.5503 300.21 92.9703 298.26C114.39 296.31 124.58 285.13 104.62 280.73C84.6603 276.33 56.4303 278.309 56.4303 278.309Z" fill="black"/>
<path d="M12.8002 288.81C12.8002 288.81 11.6602 293.16 12.3802 300.66C12.8702 305.8 16.6201 319.6 26.7801 320.61C28.0801 320.74 31.6602 321.08 34.1302 319.43C35.8902 318.25 38.0501 315.37 37.3501 308.85C36.9101 304.79 32.7502 288.43 32.7502 288.43L12.8002 288.81Z" fill="#D5DFEF"/>
<path d="M12.9695 285.95C12.9695 285.95 11.4195 289.68 13.5895 300.84C15.2195 309.21 19.8795 319.29 31.1195 318.36C34.6395 318.07 38.9995 316.24 37.1195 305.6C36.4595 301.82 33.7695 287.18 33.5295 287.18L12.9695 285.95Z" fill="#EE7D00"/>
<path d="M18.7498 301.84C21.9147 300.012 25.4955 299.028 29.1498 298.98C31.0482 298.939 32.9334 299.304 34.6798 300.05C34.9587 300.182 35.1741 300.419 35.279 300.709C35.3839 301 35.3698 301.32 35.2398 301.6C35.1 301.871 34.8624 302.08 34.5749 302.184C34.2873 302.288 33.9711 302.279 33.6898 302.16C32.269 301.566 30.7389 301.28 29.1998 301.32C25.9364 301.364 22.7384 302.241 19.9098 303.87C19.7324 303.968 19.5328 304.02 19.3298 304.02C19.0737 304.017 18.8254 303.931 18.6231 303.774C18.4207 303.617 18.2755 303.398 18.2096 303.15C18.1438 302.903 18.1609 302.641 18.2585 302.404C18.3561 302.167 18.5287 301.969 18.7498 301.84Z" fill="#D5DFEF"/>
<path d="M19.7996 305.33C22.9654 303.505 26.5457 302.52 30.1996 302.47C32.0728 302.418 33.9362 302.758 35.6696 303.47C35.9503 303.601 36.168 303.837 36.2748 304.127C36.3816 304.418 36.369 304.739 36.2396 305.02C36.1052 305.297 35.8687 305.511 35.5796 305.618C35.2905 305.724 34.9715 305.714 34.6896 305.59C33.2831 305.01 31.7706 304.731 30.2496 304.77C26.9858 304.812 23.7872 305.689 20.9596 307.32C20.7826 307.42 20.5827 307.471 20.3796 307.47C20.1754 307.47 19.9748 307.416 19.7989 307.312C19.623 307.208 19.4782 307.059 19.3796 306.88C19.2362 306.617 19.1997 306.31 19.278 306.021C19.3563 305.732 19.5432 305.484 19.7996 305.33Z" fill="#D5DFEF"/>
<path d="M17.0697 298.65C17.123 298.506 17.2044 298.375 17.3091 298.263C17.4139 298.152 17.5398 298.062 17.6796 298C21.0832 296.491 24.7667 295.718 28.4896 295.73C30.4744 295.691 32.4508 295.999 34.3297 296.64C34.4736 296.694 34.6052 296.776 34.7173 296.882C34.8294 296.987 34.9196 297.114 34.9827 297.254C35.0459 297.394 35.0808 297.545 35.0854 297.699C35.09 297.853 35.0643 298.006 35.0097 298.15C34.8956 298.435 34.6758 298.665 34.3963 298.791C34.1168 298.918 33.7991 298.932 33.5097 298.83C31.901 298.282 30.2086 298.022 28.5097 298.06C25.1254 298.065 21.78 298.78 18.6897 300.16C18.5383 300.238 18.3697 300.275 18.1997 300.27C17.9776 300.27 17.76 300.207 17.5723 300.089C17.3846 299.97 17.2346 299.801 17.1397 299.6C17.0649 299.454 17.0201 299.295 17.0081 299.132C16.9961 298.969 17.017 298.805 17.0697 298.65Z" fill="#D5DFEF"/>
<path d="M81.3499 265.95L88.9299 269.83C88.9299 269.83 104.28 276.17 107.39 278.13C108.133 278.696 108.754 279.405 109.216 280.216C109.678 281.027 109.972 281.923 110.08 282.85C110.21 283.75 110.08 286.3 109.57 287.01C107.681 289.192 105.113 290.675 102.28 291.22C96.9799 291.96 85.9699 289.32 85.9699 289.32C84.5599 288.59 62.4299 280.42 62.4299 280.42C62.0592 278.969 61.7754 277.496 61.5799 276.01L60.7499 264.94L81.3499 265.95Z" fill="#EE7D00"/>
<path d="M110.12 282.67C109.87 284.82 105.55 287.16 102.86 287.84C93.6503 290.17 66.4303 280.36 65.1603 279.84C62.1603 278.64 61.7802 277.61 61.7802 277.61C61.9177 278.652 62.1181 279.683 62.3803 280.7C62.3803 280.7 62.8203 283.81 64.5403 284.7C65.9103 285.38 76.7503 288.11 79.5403 288.89C79.5403 288.89 95.5402 293.17 103.34 291.47C106.02 290.88 108.97 289.9 110.34 287.22C110.8 286.33 110.16 282.37 110.12 282.67Z" fill="#D5DFEF"/>
<path d="M98.4102 274.03C95.2702 274.85 93.4702 278.48 92.4102 281.24C92.1202 281.97 90.1202 281.24 90.4102 280.55C91.6802 277.33 93.6902 273.73 97.2802 272.8C97.9702 272.62 99.6303 273.72 98.4503 274.03H98.4102Z" fill="#D5DFEF"/>
<path d="M94.3399 272.34C91.2099 273.16 89.4099 276.79 88.3399 279.55C88.0499 280.28 86.0399 279.55 86.3399 278.86C87.6099 275.64 89.6199 272.04 93.1999 271.11C93.8899 270.93 95.5599 272.03 94.3699 272.34H94.3399Z" fill="#D5DFEF"/>
<path d="M89.7998 270.73C86.6698 271.55 84.8698 275.18 83.7998 277.94C83.5098 278.67 81.4998 277.94 81.7998 277.25C83.0698 274.03 85.0798 270.43 88.6598 269.5C89.3498 269.32 91.0199 270.42 89.8299 270.73H89.7998Z" fill="#D5DFEF"/>
<path d="M100.87 130.93C100.87 130.93 73.3201 107.71 71.0201 101.61C69.2301 96.8501 60.3001 66.2801 60.3001 66.2801C60.3001 66.2801 48.8401 56.1201 46.3001 61.9901C43.7601 67.8601 51.2401 95.7301 55.4401 107.99C60.4401 122.58 93.5501 138.12 93.5501 138.12L95.6101 131.97L100.87 130.93Z" fill="#F2D3BD"/>
<path d="M49.7002 57.7297C41.0402 59.3997 40.3702 66.7297 41.5102 71.8797C43.0402 78.7897 47.0902 94.7197 47.2402 94.9897C47.2402 94.9897 47.7402 97.4497 57.2402 96.3797C65.8602 95.3797 68.9102 90.7897 68.9102 90.7897C68.2802 86.7897 65.2302 76.3797 63.6602 71.9097C60.4002 62.5997 55.1302 56.7297 49.7002 57.7297Z" fill="#489AE5"/>
<path d="M70.4496 153.27C71.1396 155.93 75.1696 156.75 77.5796 156.12C78.4196 155.91 80.2196 160.75 81.9296 162.29C82.1959 162.551 82.5219 162.743 82.8792 162.849C83.2365 162.955 83.6144 162.973 83.98 162.9C84.3456 162.827 84.6879 162.666 84.9771 162.431C85.2663 162.195 85.4937 161.893 85.6396 161.55C85.7696 161.03 81.6396 154.34 80.6996 152.62C77.4796 146.86 74.9296 147.28 72.5096 147.91C70.0896 148.54 69.7996 150.63 70.4496 153.27Z" fill="#FFE8D9"/>
<path d="M78.6899 146.86C78.9699 148.09 76.7798 151.07 73.2398 152.19C68.6498 153.63 66.2398 153.19 66.2398 153.19C63.9098 152.91 62.5498 152.3 62.0398 150.81C62.0398 150.81 60.1498 145.31 59.6498 143.55C59.3298 142.42 59.8899 142.3 59.8899 142.3C60.0134 142.713 60.1988 143.104 60.4399 143.46C61.4399 144.52 63.7499 145.71 68.3799 144.86C75.6599 143.54 75.5799 139.08 75.5799 139.08C76.6499 138.85 77.0898 139.25 77.2998 140.47L78.6899 146.86Z" fill="white"/>
<path d="M65.7997 156.61C65.7997 156.61 78.0097 199.01 81.5697 214.86C83.8997 225.21 85.3597 263.08 85.3597 263.08C86.0597 267.71 86.7297 268.63 85.4197 270.23C80.4897 276.23 63.7897 285.23 60.4197 275.46C60.4197 275.46 59.5797 241.66 56.7897 230.28C49.1597 212.72 33.3397 162.28 33.3397 162.28L65.7997 156.61Z" fill="#144994"/>
<path d="M49.2002 164.36C49.2002 164.36 44.8601 175.68 41.5901 200C40.5001 208.13 40.4702 226.37 39.5102 234.57C37.6902 250.1 36.3302 264.57 36.2802 273.39C36.2802 276.59 36.1002 288.63 36.1002 288.63C36.1002 291.98 33.3701 293.77 27.7701 294.63C13.8901 296.83 11.3902 289.41 11.2802 288.25C11.1602 285.06 12.0402 285.05 11.6302 274.25C11.1002 260.07 11.0102 248.17 11.2802 242.52C11.5401 237.1 11.5202 220.39 11.8802 214.98C13.5202 190.23 7.50018 183.66 9.18018 169.75C10.3902 159.73 49.2002 164.36 49.2002 164.36Z" fill="#144994"/>
<path d="M54.5797 60.4001C60.1397 69.8901 63.0296 77.8701 63.7896 97.2501L67.0896 161.25C67.1796 163.86 41.6496 160.66 39.4696 162.2L1.53962 84.0101C1.24962 78.0101 10.0796 71.2501 17.1496 66.7101C20.7896 64.3701 27.6096 60.9901 27.6096 60.9901L39.8696 56.7301C39.8696 56.7301 50.7997 53.9601 54.5797 60.4001Z" fill="#3178C5"/>
<path d="M52.6301 58.0696C49.8701 55.1596 45.1801 56.2996 42.2601 56.9596C46.1901 59.1296 58.6101 61.9596 58.2601 93.0796C58.1901 99.3796 46.1501 102.5 40.8301 100.34C40.3701 92.3396 39.3801 82.0596 36.0801 75.4296C31.9401 67.0896 28.0801 63.9496 26.1501 62.8396C25.5821 62.4903 24.9106 62.3489 24.2501 62.4396C24.2501 62.4396 17.5901 64.4396 16.6401 67.0496C16.6401 67.0496 22.0901 65.4096 29.7401 76.5796C34.2701 83.1896 35.9201 96.7396 34.3101 100.95C32.3101 106.04 7.8201 99.7496 7.8201 99.7496C7.8201 99.7496 11.2701 138.62 11.0201 151.6C10.9201 156.21 9.15005 169.95 9.15005 169.95C10.0401 174.11 12.7901 174.08 14.8501 174.75C14.8501 174.75 37.6801 169.07 49.1801 167.38C58.2701 166.04 67.3501 172.13 67.3901 169.95C67.5201 161.87 65.2601 130.07 65.2601 130.07C64.5701 109.32 64.2601 94.9796 63.0001 85.0696C60.3001 64.4496 56.1601 61.7996 52.6301 58.0696Z" fill="#144994"/>
<path d="M41.4299 120.67C46.4299 130.57 62.7199 128.54 63.1699 114.86C63.1699 114.86 46.9799 120.45 41.4299 120.67Z" fill="#0B0B28"/>
<path d="M63.1401 114.92C63.8901 125.05 64.8001 140.02 53.5501 142.05C48.0501 143.05 44.8101 139.31 43.1901 135.62C41.3101 131.3 40.5901 126.83 41.4301 120.67C41.4301 120.67 44.8001 124.31 52.3301 122.28C63.3201 119.3 63.1401 114.92 63.1401 114.92Z" fill="#062E56"/>
<path d="M41.4797 98.17C41.7291 100.347 41.836 102.539 41.7997 104.73C41.7997 106.37 34.1997 107.29 33.9697 105.62C33.5985 103.386 33.4245 101.124 33.4498 98.86C33.4498 98.02 34.0797 98.64 37.1597 98.08C40.4197 97.49 41.3297 97.07 41.4797 98.17Z" fill="#FFDB28"/>
<path d="M58.2093 92.8896C58.2632 94.9901 58.457 97.0848 58.7894 99.1596C58.8494 99.6296 59.0294 99.8596 59.6694 99.7196C61.5194 99.2896 64.3694 98.3996 64.3294 97.3996C64.3488 95.48 64.1982 93.5626 63.8794 91.6696C63.8094 91.2096 63.7893 90.5996 63.2793 90.6696C62.7693 90.7396 59.3693 91.6696 58.6493 91.8196C58.1593 91.8896 58.2093 92.2796 58.2093 92.8896Z" fill="#FFDB28"/>
<path d="M53.8796 143.88C57.3696 144.2 62.1396 143.1 65.2996 145.07C67.0796 146.24 69.7496 149.61 66.8296 150.69C64.6396 151.58 53.6296 146.19 55.2296 144.2L53.8796 143.88Z" fill="#F2D3BD"/>
<path d="M59.7998 146.56C59.7998 146.56 30.0798 127.48 27.7998 121.38C26.0098 116.61 16.5898 87.6405 16.5898 87.6405C16.5898 87.6405 5.12978 77.4805 2.58978 83.3505C0.0497818 89.2204 8.76979 114.78 12.9698 127.05C17.9698 141.64 52.5098 153.76 52.5098 153.76L54.5698 147.61L59.7998 146.56Z" fill="#F2D3BD"/>
<path d="M8.61987 76.7301C-0.0401268 78.4101 -0.710129 85.7301 0.429871 90.8901C1.95987 97.7901 6.00985 113.73 6.15985 113.99C6.15985 113.99 6.65985 116.45 16.1599 115.39C24.7899 114.39 27.8398 109.79 27.8398 109.79C27.2098 105.79 24.1598 95.3901 22.5898 90.9201C19.3198 81.5701 14.0399 75.7301 8.61987 76.7301Z" fill="#489AE5"/>
<path d="M64.3499 173.2L61.4999 170.82C61.4855 170.871 61.4853 170.925 61.4994 170.977C61.5135 171.028 61.5414 171.074 61.58 171.11L64.4199 173.49C64.3856 173.451 64.3613 173.405 64.3491 173.354C64.3369 173.303 64.3372 173.251 64.3499 173.2Z" fill="#122B01"/>
<path d="M103.229 117.91L100.38 115.53C100.334 115.504 100.282 115.49 100.229 115.49C100.177 115.49 100.125 115.504 100.08 115.53L102.93 117.91C102.975 117.883 103.027 117.869 103.08 117.869C103.132 117.869 103.184 117.883 103.229 117.91Z" fill="#173801"/>
<path d="M97.0801 121.021L94.2401 118.641C94.1733 118.963 94.0442 119.268 93.86 119.541L96.7001 121.931C96.8869 121.656 97.0161 121.346 97.0801 121.021Z" fill="#173801"/>
<path d="M96.7002 121.931L93.8602 119.541C93.6885 119.797 93.4795 120.026 93.2402 120.221L96.0901 122.601C96.3239 122.407 96.5292 122.182 96.7002 121.931Z" fill="#A2AF99"/>
<path d="M96.0898 122.601L93.2399 120.221C93.0527 120.379 92.8396 120.505 92.6099 120.591L95.4598 122.971C95.6885 122.882 95.9013 122.757 96.0898 122.601Z" fill="#173801"/>
<path d="M102.92 117.891L100.08 115.511L94.4099 117.601L97.2499 119.981L102.92 117.891Z" fill="#143001"/>
<path d="M97.25 119.981L94.41 117.601L94.23 118.641L97.07 121.021L97.25 119.981Z" fill="#122B01"/>
<path d="M97.4502 118.78L94.6102 116.41L91.8502 117.42L94.7002 119.8L97.4502 118.78Z" fill="#8C8C8C"/>
<path d="M95.4502 122.971L92.6102 120.591L75.9102 126.751L78.7602 129.131L95.4502 122.971Z" fill="#143001"/>
<path d="M78.7998 129.131L75.9598 126.751C75.8154 126.82 75.6552 126.85 75.4954 126.838C75.3356 126.826 75.1819 126.771 75.0498 126.681L77.7998 129.061C77.9319 129.151 78.0856 129.206 78.2454 129.218C78.4052 129.23 78.5654 129.2 78.7098 129.131H78.7998Z" fill="#173801"/>
<path d="M94.7002 119.801L91.8502 117.421L77.8402 122.591L80.6802 124.971L94.7002 119.801Z" fill="#8C8C8C"/>
<path d="M77.6298 128.201L74.7798 125.811C74.7374 125.963 74.7363 126.124 74.7767 126.277C74.8172 126.43 74.8976 126.569 75.0098 126.681L77.7998 129.061C77.6902 128.95 77.6121 128.811 77.5734 128.66C77.5348 128.509 77.537 128.351 77.5798 128.201H77.6298Z" fill="#A3A3A3"/>
<path d="M77.7998 127.16L74.9498 124.78L74.7798 125.82L77.6198 128.2L77.7998 127.16Z" fill="#7E7E7E"/>
<path d="M78 125.96L75.16 123.58L74.95 124.78L77.8 127.16L78 125.96Z" fill="#7E7E7E"/>
<path d="M80.6797 124.971L77.8397 122.591L75.1597 123.581L77.9997 125.961L80.6797 124.971Z" fill="#8C8C8C"/>
<path d="M71.6699 129.87L68.8299 127.49L61.4999 170.82L64.3499 173.2L71.6699 129.87Z" fill="#122B01"/>
<path d="M77.7998 127.16L74.9498 124.78L69.3698 126.84L72.2098 129.22L77.7998 127.16Z" fill="#143001"/>
<path d="M72.2198 129.221C72.083 129.277 71.9617 129.366 71.866 129.479C71.7704 129.592 71.7031 129.726 71.6698 129.871L64.3498 173.201C64.3498 173.471 64.4698 173.611 64.7198 173.511L95.4398 162.191C95.5718 162.128 95.6886 162.038 95.7819 161.925C95.8751 161.813 95.9427 161.682 95.9798 161.541L103.3 118.201C103.3 117.941 103.18 117.801 102.93 117.891L97.2598 119.981L97.0798 120.981C96.991 121.42 96.7973 121.831 96.5152 122.179C96.2331 122.528 95.871 122.802 95.4598 122.981L78.7998 129.131C78.0398 129.411 77.5298 128.991 77.6698 128.201L77.8398 127.201L72.2198 129.221Z" fill="#0C1E01"/>
<path d="M68.9498 127.181C69.0092 127.098 69.0799 127.024 69.1597 126.961C69.2213 126.908 69.2927 126.867 69.3698 126.841L72.2197 129.221C72.1396 129.247 72.065 129.288 71.9998 129.341C71.9225 129.404 71.8551 129.478 71.7997 129.561C71.7338 129.653 71.6894 129.759 71.6697 129.871L68.8298 127.491C68.8504 127.381 68.8911 127.276 68.9498 127.181Z" fill="#173801"/>
<path d="M94.2998 118.25L91.4498 115.87C91.2124 115.702 90.9341 115.6 90.6439 115.575C90.3537 115.551 90.0623 115.604 89.7998 115.73L92.6498 118.12C92.9035 117.993 93.1867 117.937 93.4698 117.956C93.7529 117.975 94.0257 118.07 94.2598 118.23L94.2998 118.25Z" fill="#B2B2B2"/>
<path d="M78.5194 120.98C78.8176 120.523 79.1854 120.115 79.6094 119.77C79.9427 119.496 80.3174 119.277 80.7194 119.12L89.7994 115.73L92.6494 118.12L83.5294 121.48C83.1233 121.635 82.745 121.854 82.4094 122.13C81.988 122.477 81.6206 122.885 81.3195 123.34C80.9877 123.826 80.7565 124.374 80.6395 124.95L77.7994 122.57C77.9268 121.996 78.172 121.455 78.5194 120.98Z" fill="#B2B2B2"/>
<path d="M85.2705 119.931L82.4205 117.551L82.2605 118.561L85.1005 120.931L85.2705 119.931Z" fill="#DADADA"/>
<path d="M87.5098 116.37L84.6697 113.99C84.1307 114.426 83.6619 114.942 83.2797 115.52L86.1198 117.9C86.4993 117.32 86.9685 116.804 87.5098 116.37Z" fill="#DADADA"/>
<path d="M86.0798 113.16C86.3968 113.007 86.7487 112.94 87.0999 112.967C87.4511 112.993 87.7891 113.111 88.0798 113.31L90.9697 115.73C90.6791 115.531 90.3411 115.413 89.9899 115.387C89.6387 115.36 89.2868 115.427 88.9697 115.58C88.4583 115.78 87.9822 116.06 87.5598 116.41L84.7197 114.03C85.1229 113.669 85.5823 113.375 86.0798 113.16Z" fill="#DADADA"/>
<path d="M83.2801 115.521L86.1201 117.901C85.7061 118.504 85.4171 119.184 85.2701 119.901L82.4301 117.521C82.5728 116.802 82.8622 116.122 83.2801 115.521Z" fill="#DADADA"/>
<path d="M77.6302 128.201L77.8002 127.201L78.0102 126.001L80.6802 125.001C80.8559 124.236 81.2091 123.524 81.7111 122.921C82.2132 122.318 82.85 121.842 83.5702 121.531L92.6902 118.171C94.0402 117.671 94.9402 118.411 94.6902 119.831L97.4502 118.831L97.2502 120.031L97.0702 121.031C96.9814 121.47 96.7876 121.881 96.5056 122.23C96.2235 122.578 95.8614 122.853 95.4502 123.031L78.8002 129.131C78.0002 129.411 77.4902 128.991 77.6302 128.201Z" fill="#575757"/>
<path d="M91.3098 118.641L85.0998 120.931L85.2697 119.931C85.4925 118.964 85.9387 118.064 86.5727 117.301C87.2066 116.539 88.0105 115.936 88.9198 115.541C90.6298 114.911 91.7798 115.851 91.4798 117.641L91.3098 118.641Z" fill="#575757"/>
<path d="M53.9397 144.06C55.2197 145.18 57.2797 145.59 58.7897 146.3C59.714 146.732 60.6092 147.223 61.4697 147.77C63.1697 148.82 64.5198 147.26 64.6998 149.21C64.7998 150.21 65.2797 152.37 67.1197 153.02C68.1546 153.318 69.2232 153.483 70.2997 153.51C71.1378 153.463 71.9784 153.527 72.7997 153.7C73.5673 153.87 74.3009 154.167 74.9697 154.58C75.8797 155.32 75.1297 156.33 74.7297 157.12C74.3297 157.91 73.8797 158.8 73.4897 159.69C73.2554 160.207 72.9599 160.694 72.6097 161.14C72.0794 161.894 71.419 162.548 70.6597 163.07C69.2634 163.735 67.7599 164.144 66.2197 164.28C64.5497 164.44 63.9297 162.59 64.2997 160.88C64.4988 160.135 64.8758 159.449 65.3983 158.881C65.9208 158.313 66.5733 157.881 67.2997 157.62C68.46 157.374 69.6537 157.327 70.8298 157.48C71.5644 157.533 72.2815 157.73 72.9397 158.06C73.7697 158.43 73.9397 158.7 73.2897 159.4C72.3274 160.548 71.0578 161.398 69.6297 161.85C69.2297 161.96 68.7697 161.98 68.3597 162.05C67.9497 162.12 67.7097 162.24 67.3597 162.3C65.6597 162.63 66.6497 159.02 66.8997 158.3C67.4776 157.045 68.2618 155.896 69.2197 154.9C69.7297 154.31 71.1597 152.96 71.8997 153.9C72.0633 154.215 72.1578 154.56 72.1768 154.914C72.1958 155.267 72.1388 155.621 72.0097 155.95C71.5136 157.662 70.7327 159.278 69.6998 160.73C69.1015 161.756 68.3494 162.683 67.4697 163.48C66.2997 164.39 66.4697 164.48 65.0397 164.17C62.4997 163.79 57.6797 163.69 55.9697 161.87C53.9697 159.7 51.3797 154.76 49.2697 152.73C47.4397 150.97 51.2697 144.04 54.0197 143.73C54.279 143.704 54.5404 143.704 54.7997 143.73L53.9397 144.06Z" fill="#F2D3BD"/>
<path d="M103.01 140.26C102.65 142.92 101.16 148.21 97.8297 147.95C95.1697 146.71 95.0296 140.61 95.0296 137.95C95.0296 134.76 97.2796 130.95 100.84 130.76C103.58 130.62 103.92 131.76 103.97 132.67C104.001 135.232 103.678 137.786 103.01 140.26Z" fill="#F2D3BD"/>
<path d="M45.3196 67.2498C44.6496 67.9098 45.6696 74.9698 45.0496 75.4198C44.4296 75.8698 41.6996 70.1098 41.0496 70.3698C35.2596 72.8298 32.5096 65.8498 27.0496 61.3098L26.0496 39.0098L44.3796 44.2798C44.3796 44.2798 46.4396 59.4098 46.3796 64.6398C46.2882 65.5945 45.9197 66.5017 45.3196 67.2498Z" fill="#E8C5AC"/>
<path d="M32.8902 28.9196C33.9936 28.9539 35.045 29.3962 35.8411 30.161C36.6373 30.9257 37.1215 31.9585 37.2002 33.0596L36.7701 41.2196C36.7701 41.2196 36.4802 42.9896 34.9302 43.2196C32.5902 43.5696 31.6901 41.4896 30.7701 39.2196C30.7201 39.0996 29.5802 35.7396 29.5102 35.5396C28.5202 32.7296 29.0402 28.7296 32.8902 28.9196Z" fill="#FFE8D9"/>
<path d="M42.11 17.5901L26.4 16.8301L24.63 45.1401C24.76 47.1401 24.58 48.8601 24.81 50.5201C24.9497 51.5676 25.2956 52.5771 25.8276 53.4903C26.3597 54.4034 27.0675 55.202 27.91 55.8401C30.1706 57.8072 32.6663 59.4867 35.34 60.8401C36.9628 61.7164 38.7862 62.1542 40.63 62.1101C42.3142 61.6514 43.9411 61.004 45.48 60.1801C47.73 58.9801 49.55 58.3501 50.92 55.0501C51.9682 52.5705 52.8208 50.0127 53.47 47.4001L56.57 30.7301L58 19.1001L42.11 17.5901Z" fill="#FFE1CC"/>
<path d="M55.4198 12.3298C59.6898 15.0398 55.8198 21.5298 59.0498 25.1798C56.9898 30.6298 56.2998 31.6598 56.3798 31.7498C56.4598 31.8398 56.7698 28.0298 56.9798 25.7498C57.2998 22.4298 53.8198 23.3398 52.3898 24.3498C50.2698 25.8498 45.2798 28.5498 45.1598 28.6198C43.2998 29.5598 42.9698 28.7698 42.9198 27.4598C42.9198 27.1698 42.9798 25.4598 42.9798 25.4598C42.7498 25.6098 38.4698 27.3598 37.3098 27.9598C36.0262 28.5766 34.9582 29.5657 34.2447 30.7982C33.5312 32.0307 33.2055 33.4495 33.3098 34.8698L33.1798 37.3498C33.0998 38.6398 33.2498 40.1198 31.9898 39.9098C30.7298 39.6998 30.7998 39.1798 30.4998 37.7898C30.4998 37.7898 30.7198 31.3798 25.3498 33.5798C22.5198 34.7298 24.1898 41.0298 24.3498 41.3998L24.8398 50.7498C23.6598 51.0298 21.1898 48.9698 19.8398 45.6898C17.4298 39.6198 15.9498 35.2798 15.2798 33.4398C8.86979 15.3298 24.5998 -1.2702 43.9198 5.7298C47.5398 7.0098 55.4198 12.3298 55.4198 12.3298Z" fill="#421E01"/>
<path d="M25.98 33.3403C27.085 33.3748 28.1378 33.8185 28.9342 34.5853C29.7306 35.3521 30.2137 36.3874 30.29 37.4903L29.86 45.6503C29.86 45.6503 29.57 47.4203 28.02 47.6503C25.68 48.0003 24.7801 45.9303 23.8701 43.6503C23.8201 43.5103 22.67 40.1603 22.6 39.9703C21.62 37.1203 22.13 33.1403 25.98 33.3403Z" fill="#FFE8D9"/>
<path d="M38.7402 190.05C34.7402 201.56 18.8402 206.97 16.0602 189.53C16.0602 189.53 18.8303 191.46 26.9503 191.47C30.9289 191.584 34.9023 191.105 38.7402 190.05Z" fill="#0B0B28"/>
<path d="M16.0602 189.53C16.1202 196.35 15.8402 203.53 16.7802 210.2C17.0496 212.739 18.2737 215.081 20.2045 216.752C22.1353 218.423 24.6287 219.298 27.1802 219.2C29.492 219.261 31.742 218.449 33.4821 216.926C35.2221 215.403 36.3247 213.28 36.5703 210.98C37.2803 204.83 37.5702 199.1 38.7402 190.08C38.7402 190.08 35.8602 194.75 26.7402 194.7C16.5502 194.62 16.0602 189.53 16.0602 189.53Z" fill="#062E56"/>
<path d="M52.7299 183.42C56.6399 190.51 66.7299 190.42 71.2399 186.84C72.1718 185.946 72.8643 184.831 73.2539 183.6C73.6435 182.368 73.7177 181.058 73.4699 179.79C73.3199 179.21 72.5499 178.97 72.0499 178.94C72.0499 178.94 71.4799 180.65 64.6199 182.76C60.5399 184.02 55.0799 184.45 52.7299 183.42Z" fill="#0B0B28"/>
<path d="M72.0498 178.94C72.2632 178.908 72.481 178.919 72.6899 178.973C72.8989 179.027 73.0947 179.123 73.2657 179.254C73.4366 179.386 73.5792 179.551 73.6847 179.739C73.7903 179.928 73.8567 180.135 73.8799 180.35C74.7699 184.92 77.0099 192.35 77.7599 199.63C78.3199 205.1 74.4298 209.35 69.0298 210.23C66.7639 210.682 64.4108 210.265 62.4389 209.06C60.4671 207.856 59.0215 205.953 58.3899 203.73C56.6499 197.79 55.3898 192.13 52.7298 183.43C52.7298 183.43 56.7298 189.03 65.3398 186.02C70.3398 184.28 73.0199 181.76 73.3899 180.36C73.6999 179.16 72.0498 178.94 72.0498 178.94Z" fill="#062E56"/>
<path d="M73.2403 28.2504C73.5503 26.8004 72.9903 26.2504 71.4003 25.7304L59.4003 21.3104C59.4957 19.7018 59.4957 18.0889 59.4003 16.4804C58.9803 6.03036 48.3203 1.58036 42.1603 0.480359C29.5703 -1.68964 17.4303 3.15036 15.0103 12.4804C14.3403 15.0604 14.1903 16.9304 15.4203 17.4804L18.1603 18.3704C23.8303 20.8404 29.6403 26.7804 37.1603 26.3004C44.6803 25.8204 51.7303 25.5104 58.0103 26.3004C61.2503 26.7304 70.8003 29.0404 70.8003 29.0404C71.9003 29.2704 73.0203 29.3104 73.2403 28.2504Z" fill="#EE7D00"/>
<path d="M23.9801 18.9899C26.4501 19.8599 30.7801 21.4599 33.3601 21.5499C38.8101 21.7199 46.51 20.6499 53.7901 21.2499C59.4501 21.7099 58.79 21.3099 59.41 21.3299L71.41 25.7099C73 26.2299 73.5601 26.7899 73.2501 28.2299C73.0301 29.2999 71.9101 29.2299 70.8001 29.0199C70.8001 29.0199 61.26 26.7099 58.03 26.2999C51.75 25.4999 44.7001 25.8099 37.1801 26.2999C29.6601 26.7899 23.8501 20.8399 18.1801 18.3599L15.4501 17.4799C15.2741 17.3963 15.1168 17.2779 14.9879 17.1318C14.859 16.9857 14.7611 16.8149 14.7001 16.6299C17.8566 17.143 20.9619 17.9327 23.9801 18.9899Z" fill="#A75800"/>
</g>
<defs>
<clipPath id="clip0_40_15327">
<rect width="115.34" height="326.46" fill="white" transform="matrix(-1 0 0 1 115.34 0)"/>
</clipPath>
</defs>
</svg>
