<?xml version="1.0" encoding="utf-8"?>
<!-- Generator: Adobe Illustrator 25.0.1, SVG Export Plug-In . SVG Version: 6.00 Build 0)  -->
<svg version="1.1" id="Capa_1" xmlns="http://www.w3.org/2000/svg" xmlns:xlink="http://www.w3.org/1999/xlink" x="0px" y="0px"
	 viewBox="0 0 82 93.8" style="enable-background:new 0 0 82 93.8;" xml:space="preserve">
<style type="text/css">
	.st0{fill:#FF0000;}
</style>
<path class="st0" d="M0,26.4V20c0.1-2.3,1-4.3,2.7-5.9s3.7-2.4,6-2.4h8.8V8.9c0-2.4,0.9-4.5,2.6-6.2c1.7-1.7,3.8-2.6,6.2-2.6h29.3
	c2.4,0,4.5,0.9,6.2,2.6s2.6,3.8,2.6,6.2v2.9h8.8c2.3,0,4.3,0.8,6,2.4c1.7,1.6,2.6,3.5,2.7,5.9v6.4c0,1.6-0.6,3-1.7,4.1
	c-1.2,1.2-2.5,1.7-4.1,1.7v49.8c0,3.3-1.1,6.1-3.4,8.3c-2.3,2.3-5,3.4-8.3,3.4H17.6c-3.3,0-6.1-1.1-8.3-3.4c-2.3-2.3-3.4-5-3.4-8.3
	V32.3c-1.6,0-3-0.6-4.1-1.7C0.6,29.4,0,28,0,26.4z M5.9,26.4h70.3v-5.9c0-0.9-0.3-1.6-0.8-2.1c-0.5-0.5-1.3-0.8-2.1-0.8H8.8
	c-0.9,0-1.6,0.3-2.1,0.8c-0.5,0.5-0.8,1.3-0.8,2.1L5.9,26.4L5.9,26.4z M11.7,82.1c0,1.6,0.6,3,1.7,4.1c1.2,1.2,2.5,1.7,4.1,1.7h46.9
	c1.6,0,3-0.6,4.1-1.7c1.2-1.2,1.7-2.5,1.7-4.1V32.3H11.7L11.7,82.1L11.7,82.1z M17.6,79.2V41.1c0-0.9,0.3-1.6,0.8-2.1
	c0.5-0.5,1.3-0.8,2.1-0.8h5.9c0.9,0,1.6,0.3,2.1,0.8c0.5,0.5,0.8,1.3,0.8,2.1v38.1c0,0.9-0.3,1.6-0.8,2.1s-1.3,0.8-2.1,0.8h-5.9
	c-0.9,0-1.6-0.3-2.1-0.8S17.6,80,17.6,79.2L17.6,79.2z M20.5,79.2h5.9V41.1h-5.9V79.2z M23.4,11.8h35.2V8.9c0-0.9-0.3-1.6-0.8-2.1
	c-0.5-0.5-1.3-0.8-2.1-0.8H26.4c-0.9,0-1.6,0.3-2.1,0.8c-0.5,0.5-0.8,1.3-0.8,2.1L23.4,11.8L23.4,11.8z M35.2,79.2V41.1
	c0-0.9,0.3-1.6,0.8-2.1c0.5-0.5,1.3-0.8,2.1-0.8h5.9c0.9,0,1.6,0.3,2.1,0.8c0.5,0.5,0.8,1.3,0.8,2.1v38.1c0,0.9-0.3,1.6-0.8,2.1
	c-0.5,0.5-1.3,0.8-2.1,0.8h-5.9c-0.9,0-1.6-0.3-2.1-0.8C35.4,80.7,35.2,80,35.2,79.2z M38.1,79.2h5.9V41.1h-5.9V79.2z M52.7,79.2
	V41.1c0-0.9,0.3-1.6,0.8-2.1c0.5-0.5,1.3-0.8,2.1-0.8h5.9c0.9,0,1.6,0.3,2.1,0.8c0.5,0.5,0.8,1.3,0.8,2.1v38.1
	c0,0.9-0.3,1.6-0.8,2.1c-0.5,0.5-1.3,0.8-2.1,0.8h-5.9c-0.9,0-1.6-0.3-2.1-0.8C53,80.7,52.7,80,52.7,79.2z M55.7,79.2h5.9V41.1h-5.9
	V79.2z"/>
</svg>
