<svg width="208" height="312" viewBox="0 0 208 312" fill="none" xmlns="http://www.w3.org/2000/svg">
<g style="mix-blend-mode:multiply" opacity="0.29">
<path d="M113.6 271.232C113.6 271.232 86.4903 280.092 76.0103 288.142C65.5303 296.192 69.0103 310.852 79.0103 311.232C87.0103 312.492 100.8 294.712 128.14 293.482C150.87 292.482 169.21 286.182 164.14 275.712C159.07 265.242 137.8 262.102 113.6 271.232Z" fill="#160B01"/>
</g>
<path d="M139.8 257.912L146.19 261.792C146.19 261.792 159.19 268.302 161.83 270.222C162.444 270.763 162.943 271.421 163.297 272.158C163.651 272.895 163.853 273.696 163.89 274.512C163.89 275.312 163.71 277.512 163.18 278.122C161.394 279.921 159.049 281.06 156.53 281.352C151.88 281.632 142.4 278.632 142.4 278.632C141.22 277.902 122.4 269.362 122.4 269.362C122.172 268.066 122.019 266.757 121.94 265.442V255.702L139.8 257.912Z" fill="#EE7D00"/>
<path d="M139.8 269.102C139.728 269.189 139.625 269.244 139.513 269.255C139.4 269.266 139.288 269.233 139.2 269.162C139.05 269.052 138.93 268.832 139.06 268.702C140.702 266.829 142.67 265.27 144.87 264.102C146.429 263.371 148.178 263.147 149.87 263.462C149.929 263.47 149.985 263.491 150.035 263.522C150.086 263.553 150.129 263.595 150.162 263.644C150.195 263.693 150.217 263.749 150.227 263.807C150.237 263.865 150.235 263.925 150.22 263.982C150.175 264.082 150.096 264.164 149.998 264.213C149.9 264.262 149.788 264.276 149.68 264.252C148.159 263.987 146.592 264.193 145.19 264.842C143.157 265.934 141.332 267.376 139.8 269.102V269.102Z" fill="#D5DFEF"/>
<path d="M142.18 270.132C142.106 270.217 142.003 270.27 141.892 270.281C141.78 270.292 141.669 270.261 141.58 270.192C141.43 270.062 141.32 269.882 141.44 269.732C143.088 267.867 145.056 266.309 147.25 265.132C148.803 264.384 150.559 264.162 152.25 264.502C152.306 264.508 152.361 264.525 152.41 264.554C152.459 264.583 152.501 264.622 152.534 264.668C152.566 264.715 152.588 264.768 152.597 264.824C152.607 264.88 152.605 264.938 152.59 264.992C152.557 265.098 152.485 265.188 152.388 265.242C152.291 265.296 152.177 265.31 152.07 265.282C150.545 265.012 148.974 265.218 147.57 265.872C145.538 266.967 143.714 268.409 142.18 270.132V270.132Z" fill="#D5DFEF"/>
<path d="M144.34 271.632C144.271 271.719 144.171 271.776 144.061 271.791C143.951 271.806 143.839 271.778 143.75 271.712C143.61 271.572 143.49 271.382 143.6 271.242C145.25 269.372 147.221 267.811 149.42 266.632C150.981 265.912 152.727 265.689 154.42 265.992C154.478 265.999 154.534 266.018 154.584 266.048C154.633 266.079 154.676 266.119 154.709 266.168C154.741 266.217 154.762 266.272 154.771 266.33C154.78 266.387 154.776 266.446 154.76 266.502C154.722 266.606 154.649 266.693 154.555 266.75C154.46 266.806 154.349 266.828 154.24 266.812C152.715 266.516 151.135 266.712 149.73 267.372C147.708 268.482 145.886 269.922 144.34 271.632V271.632Z" fill="#D5DFEF"/>
<path d="M163.96 274.362C163.61 276.232 159.68 278.002 157.29 278.432C149.07 279.892 125.87 269.592 124.79 269.052C122.26 267.812 121.97 266.892 121.97 266.892C122.024 267.808 122.131 268.719 122.29 269.622C122.29 269.622 122.49 272.382 123.94 273.222C125.09 273.902 134.41 276.982 136.81 277.832C136.81 277.832 150.59 282.592 157.47 281.582C159.86 281.242 162.47 280.582 163.88 278.302C164.31 277.632 164.02 274.102 163.96 274.362Z" fill="#D5DFEF"/>
<path d="M175.62 148.942C174.1 149.732 171.44 150.052 169.96 148.942C156.36 138.622 138.57 125.622 135.55 119.942C132.24 113.712 123.77 90.3023 123.77 90.3023C123.77 90.3023 122.64 82.4523 129.33 81.5323C137.42 80.4223 138.47 84.3723 141.42 93.2523C144.92 103.772 149.58 115.512 151.27 116.952C156.8 121.652 168.04 135.182 174.27 140.532C175.92 141.912 181.96 145.632 175.62 148.942Z" fill="#E8C5AC"/>
<path d="M170.8 143.232L173 141.632L179.35 143.632L182.71 147.802C183.461 148.672 184.459 149.292 185.57 149.582L187.72 150.202C187.72 150.202 191.77 153.782 188.38 155.532C187.61 155.88 186.761 156.018 185.92 155.932C184.59 156.852 182.14 158.132 180.59 159.062C177.01 161.212 173.86 156.702 173.86 156.702L170.42 152.602C168.47 150.312 167.63 146.632 170.8 143.232Z" fill="#E8C5AC"/>
<path d="M164.04 144.082L170.4 149.032L175.64 141.322L172.13 138.702L164.04 144.082Z" fill="#E8C5AC"/>
<path d="M185.8 154.292C186.617 153.757 187.227 152.96 187.53 152.032C187.77 149.572 184.95 146.512 182.53 145.862C182.222 145.744 181.891 145.695 181.561 145.72C181.232 145.745 180.912 145.842 180.625 146.006C180.338 146.17 180.091 146.395 179.901 146.666C179.712 146.937 179.585 147.247 179.53 147.572C179.58 147.992 181.36 146.572 184.02 149.432C186.68 152.292 185.8 154.292 185.8 154.292Z" fill="#8E8E8D"/>
<path d="M176.06 152.882C176.239 152.648 176.493 152.484 176.78 152.419C177.067 152.353 177.368 152.39 177.63 152.522C178.272 152.78 178.843 153.186 179.297 153.707C179.751 154.229 180.074 154.851 180.24 155.522C180.4 156.292 180.17 156.852 179.68 157.072C179.113 157.327 178.479 157.392 177.872 157.257C177.264 157.122 176.717 156.795 176.311 156.325C175.904 155.854 175.66 155.265 175.615 154.645C175.57 154.025 175.726 153.407 176.06 152.882V152.882Z" fill="#5C5C5C"/>
<path d="M175.38 150.402C175.385 150.422 175.385 150.443 175.38 150.462C175.38 150.462 175.38 150.462 175.38 150.462C175.251 151.038 175.251 151.636 175.38 152.212C175.465 152.651 175.602 153.077 175.79 153.482C176.74 155.712 179.31 158.122 181.71 158.062H181.8C182.333 158.052 182.851 157.885 183.29 157.582C183.695 157.31 184.014 156.929 184.21 156.482V156.482C185.74 153.232 181.03 147.842 177.67 148.362C177.122 148.419 176.606 148.646 176.195 149.012C175.784 149.378 175.499 149.865 175.38 150.402V150.402Z" fill="#A5A5A4"/>
<path d="M177.52 149.332C179.25 147.832 183.28 150.662 183.93 153.872C184.05 154.26 184.065 154.672 183.974 155.068C183.883 155.463 183.688 155.827 183.41 156.122C183.848 155.859 184.186 155.455 184.367 154.976C184.549 154.497 184.564 153.971 184.41 153.482C184.136 152.413 183.615 151.424 182.886 150.595C182.158 149.766 181.244 149.121 180.22 148.712C179.764 148.501 179.252 148.448 178.763 148.56C178.275 148.672 177.837 148.944 177.52 149.332V149.332Z" fill="#D6D6D6"/>
<path d="M177.52 149.332C177.834 148.949 178.266 148.681 178.749 148.569C179.232 148.457 179.738 148.507 180.19 148.712C181.214 149.121 182.128 149.766 182.856 150.595C183.585 151.424 184.106 152.413 184.38 153.482C184.506 153.868 184.524 154.28 184.432 154.675C184.34 155.07 184.142 155.432 183.86 155.722L183.41 156.122C183.688 155.827 183.883 155.463 183.974 155.068C184.065 154.672 184.05 154.26 183.93 153.872C183.28 150.662 179.25 147.872 177.52 149.332V149.332Z" fill="#B7B7B7"/>
<path d="M176.91 151.542C177.189 152.642 177.726 153.659 178.475 154.511C179.224 155.363 180.165 156.025 181.22 156.442C183.22 157.102 184.44 155.962 184.03 153.912C183.748 152.811 183.21 151.792 182.459 150.939C181.708 150.085 180.766 149.422 179.71 149.002C177.8 148.352 176.49 149.482 176.91 151.542Z" fill="#8E8E8D"/>
<path d="M176.97 150.572C176.97 150.652 176.97 150.732 176.97 150.802C177.047 151.19 177.164 151.569 177.32 151.932C177.568 152.524 177.883 153.084 178.26 153.602C178.881 154.454 179.654 155.182 180.54 155.752C180.754 155.893 180.978 156.017 181.21 156.122C181.436 156.237 181.67 156.334 181.91 156.412C182.233 156.527 182.569 156.601 182.91 156.632C183.07 156.642 183.231 156.642 183.39 156.632C183.593 156.621 183.794 156.591 183.99 156.542C184.468 156.428 184.902 156.178 185.24 155.822V155.822C186.59 154.442 185.92 151.882 184.81 150.272C183.43 148.192 180.38 146.062 178.22 147.272H178.17C177.657 147.634 177.267 148.144 177.052 148.734C176.837 149.324 176.809 149.966 176.97 150.572V150.572Z" fill="#AAAAAA"/>
<path d="M178.56 150.102C178.841 151.204 179.379 152.223 180.13 153.076C180.881 153.93 181.823 154.593 182.88 155.012C184.88 155.662 186.1 154.522 185.68 152.472C185.397 151.373 184.86 150.356 184.111 149.503C183.362 148.65 182.423 147.985 181.37 147.562C179.41 146.912 178.15 148.052 178.56 150.102Z" fill="#8E8E8D"/>
<path d="M186.8 154.632C184.66 156.482 179.67 152.982 178.86 149.002C178.792 149.05 178.738 149.115 178.704 149.191C178.671 149.266 178.659 149.35 178.67 149.432C179.65 153.552 184.38 156.632 186.8 154.632Z" fill="#D6D6D6"/>
<path d="M183.62 155.012C184.137 155.234 184.703 155.315 185.261 155.249C185.819 155.182 186.35 154.969 186.8 154.632C184.66 156.482 179.67 152.982 178.86 149.002C178.792 149.05 178.738 149.115 178.704 149.191C178.671 149.266 178.659 149.35 178.67 149.432C178.973 150.701 179.581 151.876 180.442 152.855C181.303 153.835 182.391 154.589 183.61 155.052L183.62 155.012Z" fill="#5C5C5C"/>
<path d="M179.52 146.182C179.185 146.469 178.93 146.838 178.78 147.252C177.21 151.532 184.71 158.072 187.31 154.022C187.438 153.83 187.539 153.622 187.61 153.402C188.79 150.182 184.35 145.022 180.97 145.522C180.43 145.586 179.923 145.817 179.52 146.182V146.182ZM182.93 146.062C183.986 146.483 184.927 147.147 185.678 148C186.429 148.853 186.967 149.872 187.25 150.972C187.66 152.972 186.4 154.162 184.44 153.512C183.385 153.093 182.444 152.43 181.695 151.576C180.945 150.722 180.409 149.703 180.13 148.602C179.71 146.542 180.97 145.412 182.93 146.062Z" fill="#B7B7B7"/>
<path d="M192.57 137.132C192.593 137.139 192.614 137.15 192.631 137.165C192.648 137.181 192.662 137.201 192.67 137.222C192.674 137.256 192.674 137.289 192.67 137.322C192.697 137.517 192.647 137.714 192.53 137.872L183.26 150.252L182.53 150.002L191.8 137.632C191.916 137.474 191.966 137.277 191.94 137.082C191.946 137.049 191.946 137.015 191.94 136.982C191.918 136.94 191.883 136.905 191.84 136.882L192.57 137.132Z" fill="#8E8E8D"/>
<path d="M190.16 140.422L190.65 140.592C190.699 140.607 190.751 140.607 190.8 140.592C190.874 140.563 190.956 140.563 191.03 140.592L190.55 140.422C190.472 140.397 190.388 140.397 190.31 140.422C190.261 140.437 190.209 140.437 190.16 140.422V140.422Z" fill="#D6D6D6"/>
<path d="M190.16 140.422L190.65 140.592C190.699 140.607 190.751 140.607 190.8 140.592C190.874 140.563 190.956 140.563 191.03 140.592L190.55 140.422C190.472 140.397 190.388 140.397 190.31 140.422C190.261 140.437 190.209 140.437 190.16 140.422V140.422Z" fill="#9A9A9B"/>
<path d="M191.24 139.982C191.365 140.039 191.473 140.128 191.552 140.241C191.631 140.354 191.679 140.485 191.69 140.622C191.741 141.001 191.703 141.387 191.578 141.748C191.453 142.109 191.244 142.436 190.97 142.702C190.805 142.858 190.679 143.051 190.604 143.265C190.529 143.479 190.507 143.708 190.54 143.932C190.549 144.013 190.578 144.091 190.626 144.157C190.673 144.224 190.736 144.277 190.81 144.312L190.32 144.142C190.246 144.107 190.183 144.054 190.136 143.987C190.088 143.921 190.059 143.843 190.05 143.762C190.02 143.538 190.043 143.31 190.118 143.096C190.192 142.882 190.317 142.689 190.48 142.532C190.756 142.27 190.966 141.945 191.091 141.585C191.216 141.225 191.254 140.84 191.2 140.462C191.191 140.323 191.144 140.19 191.065 140.075C190.985 139.961 190.877 139.87 190.75 139.812L191.24 139.982Z" fill="#8E8E8D"/>
<path d="M190.11 144.742L190.6 144.902C190.733 144.936 190.872 144.934 191.003 144.898C191.135 144.861 191.255 144.79 191.35 144.692C191.404 144.631 191.474 144.587 191.552 144.564C191.629 144.541 191.712 144.54 191.79 144.562L191.3 144.392C191.222 144.372 191.14 144.374 191.063 144.397C190.985 144.42 190.915 144.463 190.86 144.522C190.765 144.62 190.645 144.692 190.514 144.73C190.383 144.769 190.244 144.773 190.11 144.742Z" fill="#D6D6D6"/>
<path d="M190.11 144.742L190.6 144.902C190.733 144.936 190.872 144.934 191.003 144.898C191.135 144.861 191.255 144.79 191.35 144.692C191.404 144.631 191.474 144.587 191.552 144.564C191.629 144.541 191.712 144.54 191.79 144.562L191.3 144.392C191.222 144.372 191.14 144.374 191.063 144.397C190.985 144.42 190.915 144.463 190.86 144.522C190.765 144.62 190.645 144.692 190.514 144.73C190.383 144.769 190.244 144.773 190.11 144.742Z" fill="#8E8E8D"/>
<path d="M191.2 140.462C191.09 139.852 190.67 139.632 190.2 139.892C190.141 139.937 190.095 139.997 190.067 140.066C190.039 140.134 190.03 140.209 190.04 140.282C190.04 140.432 190.18 140.452 190.3 140.422C190.42 140.392 190.74 140.472 190.8 140.792C190.832 141.017 190.81 141.246 190.735 141.46C190.66 141.674 190.535 141.867 190.37 142.022C190.095 142.286 189.886 142.611 189.761 142.971C189.636 143.331 189.597 143.715 189.65 144.092C189.645 144.234 189.686 144.373 189.766 144.49C189.845 144.607 189.96 144.696 190.093 144.744C190.227 144.791 190.372 144.796 190.507 144.756C190.643 144.716 190.763 144.634 190.85 144.522C191.16 144.252 191.48 144.362 191.56 144.772C191.599 145.123 191.514 145.477 191.32 145.772C191.267 145.838 191.227 145.913 191.203 145.993C191.179 146.074 191.171 146.159 191.18 146.242C191.18 146.372 191.32 146.422 191.42 146.302C191.63 146.041 191.785 145.739 191.876 145.416C191.967 145.093 191.992 144.755 191.95 144.422C191.954 144.281 191.913 144.142 191.834 144.025C191.754 143.908 191.639 143.819 191.506 143.771C191.373 143.723 191.228 143.719 191.092 143.759C190.956 143.798 190.836 143.88 190.75 143.992C190.44 144.262 190.12 144.142 190.04 143.742C190.01 143.518 190.033 143.29 190.108 143.076C190.182 142.862 190.306 142.669 190.47 142.512C190.745 142.253 190.955 141.932 191.081 141.575C191.208 141.219 191.249 140.837 191.2 140.462V140.462Z" fill="#AAAAAA"/>
<path d="M191.28 146.382L191.76 146.552C191.788 146.559 191.818 146.557 191.845 146.546C191.872 146.535 191.895 146.517 191.91 146.492C192.124 146.233 192.282 145.932 192.375 145.608C192.468 145.285 192.494 144.946 192.45 144.612C192.437 144.475 192.389 144.343 192.31 144.229C192.231 144.115 192.125 144.023 192 143.962L191.51 143.792C191.636 143.852 191.743 143.943 191.822 144.057C191.901 144.171 191.949 144.304 191.96 144.442C192.003 144.775 191.978 145.113 191.886 145.436C191.795 145.759 191.64 146.061 191.43 146.322C191.37 146.382 191.32 146.402 191.28 146.382Z" fill="#D6D6D6"/>
<path d="M191.28 146.382L191.76 146.552C191.788 146.559 191.818 146.557 191.845 146.546C191.872 146.535 191.895 146.517 191.91 146.492C192.124 146.233 192.282 145.932 192.375 145.608C192.468 145.285 192.494 144.946 192.45 144.612C192.437 144.475 192.389 144.343 192.31 144.229C192.231 144.115 192.125 144.023 192 143.962L191.51 143.792C191.636 143.852 191.743 143.943 191.822 144.057C191.901 144.171 191.949 144.304 191.96 144.442C192.003 144.775 191.978 145.113 191.886 145.436C191.795 145.759 191.64 146.061 191.43 146.322C191.37 146.382 191.32 146.402 191.28 146.382V146.382Z" fill="#8E8E8D"/>
<path d="M194.06 145.872C194.156 145.811 194.234 145.727 194.289 145.627C194.343 145.528 194.371 145.416 194.37 145.302C194.376 145.263 194.376 145.222 194.37 145.182C194.366 145.141 194.352 145.101 194.329 145.067C194.307 145.032 194.276 145.003 194.24 144.982L194.97 145.242C195.008 145.258 195.042 145.285 195.066 145.318C195.091 145.351 195.106 145.391 195.11 145.432C195.105 145.472 195.105 145.512 195.11 145.552C195.111 145.667 195.082 145.78 195.026 145.88C194.969 145.98 194.888 146.063 194.79 146.122L183.27 151.122L182.54 150.872L194.06 145.872Z" fill="#8E8E8D"/>
<path d="M191.98 137.072C191.985 137.039 191.985 137.005 191.98 136.972C191.9 136.812 191.71 136.832 191.57 137.032L182.3 149.412L182.44 150.152L182.58 150.882L194.1 145.882C194.196 145.821 194.274 145.737 194.328 145.637C194.383 145.538 194.411 145.426 194.41 145.312C194.416 145.272 194.416 145.232 194.41 145.192C194.41 145.022 194.27 144.942 194.14 145.002L182.62 150.002L191.8 137.632C191.866 137.556 191.915 137.467 191.946 137.37C191.977 137.274 191.989 137.173 191.98 137.072V137.072Z" fill="#B7B7B7"/>
<path d="M186.8 154.632C184.66 156.492 179.67 152.982 178.87 149.002C179.68 152.912 184.66 156.452 186.8 154.632Z" fill="#D6D6D6"/>
<path d="M186.8 154.632C184.66 156.492 179.67 152.982 178.87 149.002C179.68 152.952 184.66 156.492 186.81 154.632H186.8Z" fill="#B7B7B7"/>
<path opacity="0.64" d="M190.61 129.452C192.135 128.573 193.851 128.079 195.61 128.012C196.618 127.975 197.627 128.069 198.61 128.292C199.796 128.578 200.927 129.054 201.96 129.702C203.003 130.341 203.924 131.161 204.68 132.122V132.122C205.924 133.69 206.729 135.561 207.01 137.542C207.186 138.78 207.145 140.039 206.89 141.262C206.786 141.75 206.653 142.231 206.49 142.702C206.1 143.801 205.544 144.833 204.84 145.762C204.261 146.511 203.589 147.183 202.84 147.762C201.983 148.438 201.029 148.981 200.01 149.372C198.998 149.764 197.933 150 196.85 150.072C195.992 150.134 195.13 150.098 194.28 149.962C193.507 149.833 192.749 149.622 192.02 149.332L191.59 149.162C190.72 149.292 187.69 152.432 186.35 153.432C186.282 153.484 186.208 153.527 186.13 153.562C185.539 153.726 184.911 153.695 184.34 153.472C183.323 153.061 182.413 152.423 181.68 151.607C180.947 150.791 180.41 149.818 180.11 148.762C179.914 148.1 179.968 147.388 180.26 146.762C180.31 146.662 182.71 144.602 182.8 144.522C184.68 142.902 185.24 142.522 185.4 142.012C185.33 141.762 185.27 141.482 185.22 141.232C185.077 140.541 185 139.838 184.99 139.132C184.99 138.486 185.041 137.841 185.14 137.202C185.307 136.197 185.617 135.22 186.06 134.302C186.614 133.122 187.376 132.051 188.31 131.142C189.006 130.488 189.778 129.92 190.61 129.452V129.452Z" fill="#BCBEC0"/>
<g style="mix-blend-mode:screen" opacity="0.81">
<path d="M192.88 131.762C192.405 132.351 192.107 133.062 192.021 133.813C191.934 134.564 192.062 135.324 192.389 136.006C192.717 136.687 193.231 137.262 193.872 137.663C194.512 138.064 195.254 138.275 196.01 138.272C196.762 138.248 197.49 138.001 198.102 137.563C198.715 137.126 199.183 136.516 199.45 135.812C199.653 135.119 199.691 134.389 199.561 133.678C199.431 132.968 199.136 132.298 198.7 131.722C198.326 131.326 197.875 131.01 197.374 130.794C196.874 130.578 196.335 130.467 195.79 130.467C195.245 130.467 194.705 130.578 194.205 130.794C193.705 131.01 193.254 131.326 192.88 131.722V131.762Z" fill="#E6E7E8"/>
</g>
<path d="M173.23 146.762C174.35 149.212 178.13 149.662 180.18 148.862C180.91 148.602 184.77 154.132 187.62 152.782C187.62 152.782 186.88 151.192 185.5 148.422C184.97 146.82 183.912 145.446 182.5 144.522C176.91 141.432 176.11 140.742 174.06 141.522C172.01 142.302 172.11 144.312 173.23 146.762Z" fill="#E8C5AC"/>
<path d="M176.8 159.212C176.285 158.376 176.097 157.379 176.27 156.412C176.41 153.812 177.57 152.722 180.1 152.102C181.61 151.762 187.55 151.692 187.69 153.472C187.96 155.792 187.92 155.882 180.26 160.122C179.668 160.402 178.997 160.464 178.364 160.298C177.731 160.131 177.177 159.747 176.8 159.212V159.212Z" fill="#E8C5AC"/>
<path d="M136.8 115.362C129.28 108.612 104.97 84.3623 125.18 75.7823C137.89 70.3823 143.34 94.0223 152.08 99.8723C152.06 99.8723 141.85 108.532 136.8 115.362Z" fill="#489AE5"/>
<path d="M96.6496 280.632C96.6393 284.141 96.0653 287.626 94.9496 290.952C93.6196 295.302 87.9496 306.582 79.0096 305.672C77.8696 305.552 74.7096 305.222 72.8696 303.362C71.5496 302.042 70.1896 299.172 71.9396 293.662C73.0196 290.222 79.4896 276.822 79.4896 276.822L96.6496 280.632Z" fill="#D5DFEF"/>
<path d="M95.9102 277.802C95.9102 277.802 96.6002 281.292 92.7702 290.552C89.9002 297.552 84.1102 305.402 74.5602 302.632C71.5602 301.762 68.1202 299.422 71.5602 290.552C72.7902 287.392 77.6702 275.222 77.8802 275.252L95.9102 277.802Z" fill="#EE7D00"/>
<path d="M25.5204 32.9924L26.6304 33.4724L19.9204 26.2524L14.4404 26.1424C13.263 26.0821 12.1338 25.6555 11.2104 24.9224L9.37045 23.5424C9.37045 23.5424 3.94045 22.5424 4.62045 26.4024C4.81669 27.2344 5.22296 28.0021 5.80045 28.6324C5.87045 30.3124 6.35045 33.1324 6.55045 35.0024C7.03045 39.3024 12.6504 39.0024 12.6504 39.0024L18.1304 39.2124C21.2204 39.4324 24.7204 37.8024 25.5204 32.9924Z" fill="#E8C5AC"/>
<path d="M139.62 150.072L141.87 256.452C142.07 259.252 142.24 259.452 142.55 259.562C139.885 260.319 137.368 261.526 135.11 263.132C130.44 266.442 125.55 270.132 121.65 264.662L110.99 152.202L139.62 150.072Z" fill="#144994"/>
<path d="M126.43 153.822L96.9904 278.532C96.7304 280.632 95.6704 281.252 93.8104 281.722C83.0604 284.432 78.6904 280.662 78.6904 280.662C76.6904 279.662 76.7804 277.982 76.6904 277.002L93.6904 153.282L126.43 153.822Z" fill="#144994"/>
<path d="M139.45 156.482C139.45 156.482 146.71 112.242 141.04 92.5724C136.99 78.5724 134.24 75.7724 131.52 73.8924C127.01 70.7624 119.75 69.7424 117.85 70.4724C118.46 71.0224 111.68 67.3224 112.47 68.4724C108.34 68.7024 105.33 70.1524 102.34 71.6124C100.77 72.3724 98.8002 73.6124 99.0602 73.3324C99.0602 73.3324 78.4902 75.7424 78.4902 75.5024L79.4902 96.7124C79.4902 96.7124 90.0402 123.012 90.4902 130.442C91.5902 147.392 92.9502 155.642 94.0502 167.262C94.2202 169.042 88.7702 171.642 101.23 173.532C101.23 173.532 109.9 174.752 112.23 173.942C114.15 173.262 119.55 172.042 118.65 163.832L118.44 161.402C127.8 160.912 139.8 158.632 139.45 156.482Z" fill="#3178C5"/>
<path d="M22.3701 44.1023L18.1201 37.1123L25.1601 31.3523L28.5501 36.5423L22.3701 44.1023Z" fill="#E8C5AC"/>
<path d="M9.35016 27.7624C9.04995 26.8942 9.04995 25.9505 9.35016 25.0824C10.5902 23.0824 14.4602 22.4324 16.6102 23.3024C16.907 23.3932 17.1801 23.5484 17.41 23.7568C17.64 23.9653 17.8211 24.222 17.9405 24.5085C18.0599 24.795 18.1146 25.1043 18.1007 25.4144C18.0868 25.7245 18.0047 26.0277 17.8602 26.3024C17.5802 26.5924 17.0902 24.4724 13.4302 25.1124C9.77016 25.7524 9.35016 27.7624 9.35016 27.7624Z" fill="#8E8E8D"/>
<path d="M17.4299 32.2824C17.4299 31.8024 17.1399 31.3524 16.4299 31.1224C15.804 30.9457 15.1451 30.9198 14.5072 31.0467C13.8693 31.1736 13.2706 31.4497 12.7599 31.8524C12.1999 32.3424 12.0499 32.8524 12.2899 33.3324C12.5594 33.8639 12.9961 34.2923 13.5327 34.5515C14.0694 34.8107 14.6763 34.8865 15.2602 34.7673C15.8442 34.648 16.3728 34.3402 16.7648 33.8913C17.1567 33.4423 17.3904 32.8771 17.4299 32.2824Z" fill="#5C5C5C"/>
<path d="M19.3703 30.8223C19.365 30.8385 19.365 30.8561 19.3703 30.8723C19.3703 30.8723 19.3703 30.8723 19.3703 30.8723C19.1355 31.376 18.7943 31.8229 18.3703 32.1823C18.0638 32.4547 17.7285 32.6928 17.3703 32.8923C15.3703 34.0223 12.0603 34.3423 10.3003 32.8923C9.9047 32.5767 9.60938 32.1528 9.45032 31.6723C9.30925 31.2321 9.29195 30.7616 9.40033 30.3123V30.3123C10.1203 27.0023 16.7403 25.6623 18.9503 27.9923C19.3054 28.3621 19.5365 28.8332 19.6118 29.3403C19.687 29.8474 19.6027 30.3653 19.3703 30.8223V30.8223Z" fill="#A5A5A4"/>
<path d="M18.3798 28.7823C17.9398 26.6723 13.2998 26.4823 10.9698 28.5123C10.6517 28.732 10.3998 29.0344 10.2411 29.3869C10.0825 29.7394 10.0233 30.1286 10.0698 30.5123C9.89644 30.0628 9.87906 29.568 10.0205 29.1074C10.162 28.6468 10.454 28.2471 10.8498 27.9723C11.6719 27.3307 12.6333 26.8914 13.6565 26.6899C14.6797 26.4884 15.7359 26.5303 16.7398 26.8123C17.1892 26.9196 17.5918 27.1695 17.8874 27.5246C18.183 27.8797 18.3558 28.3209 18.3798 28.7823V28.7823Z" fill="#D6D6D6"/>
<path d="M18.3796 28.7823C18.3636 28.3152 18.1943 27.8663 17.8979 27.5049C17.6016 27.1435 17.1945 26.8896 16.7396 26.7823C15.7357 26.5003 14.6794 26.4584 13.6563 26.6599C12.6331 26.8614 11.6717 27.3007 10.8496 27.9423C10.5358 28.1654 10.2876 28.4687 10.131 28.8206C9.97446 29.1724 9.91527 29.5598 9.95962 29.9423L10.0696 30.5023C10.023 30.1186 10.0823 29.7294 10.2409 29.3769C10.3995 29.0244 10.6515 28.722 10.9696 28.5023C13.2996 26.5023 17.9696 26.6623 18.3796 28.7723V28.7823Z" fill="#B7B7B7"/>
<path d="M17.57 30.7923C16.7287 31.4572 15.7415 31.9127 14.6896 32.1213C13.6378 32.3299 12.5514 32.2857 11.52 31.9923C9.67002 31.3523 9.39002 29.7823 10.88 28.4823C11.7161 27.826 12.6947 27.3754 13.737 27.1669C14.7792 26.9585 15.8559 26.998 16.88 27.2823C18.8 27.9223 19.06 29.4923 17.57 30.7923Z" fill="#8E8E8D"/>
<path d="M18.07 30.0324C18.0218 30.0876 17.9682 30.1378 17.91 30.1824C17.6327 30.4305 17.3273 30.6453 17 30.8224C16.4762 31.1299 15.9149 31.3685 15.33 31.5324C14.3806 31.8142 13.3874 31.9192 12.4 31.8424C12.1578 31.8219 11.9173 31.7851 11.68 31.7324C11.4456 31.6909 11.2148 31.6308 10.99 31.5524C10.6724 31.4414 10.3674 31.2972 10.08 31.1224C9.97002 31.0424 9.82002 30.9424 9.72002 30.8524C9.57469 30.7243 9.44085 30.5838 9.32002 30.4324C9.03177 30.0734 8.85144 29.6399 8.80002 29.1824C8.80002 29.1824 8.80002 29.1824 8.80002 29.1824C8.58002 27.3824 10.56 25.8424 12.31 25.2724C14.54 24.5124 18.05 24.6724 18.97 26.8124C19.1722 27.3762 19.1942 27.9889 19.0329 28.5657C18.8717 29.1426 18.5352 29.6551 18.07 30.0324V30.0324Z" fill="#AAAAAA"/>
<path d="M17.1499 28.7724C16.3069 29.4341 15.3192 29.8869 14.2677 30.0937C13.2162 30.3005 12.1307 30.2555 11.0999 29.9624C9.25986 29.3324 8.96986 27.7524 10.4599 26.4524C11.3032 25.7914 12.2908 25.339 13.3422 25.1322C14.3936 24.9254 15.479 24.97 16.5099 25.2624C18.3499 25.9024 18.6399 27.4724 17.1499 28.7724Z" fill="#8E8E8D"/>
<path d="M8.40039 27.4023C8.94039 30.0123 14.6904 30.2523 17.5804 27.7323C17.6061 27.8085 17.6094 27.8905 17.5899 27.9685C17.5704 28.0465 17.5289 28.1172 17.4704 28.1723C14.3604 30.7323 9.05039 30.3223 8.40039 27.4023Z" fill="#D6D6D6"/>
<path d="M10.5504 29.5424C10.0342 29.4089 9.56287 29.1403 9.18498 28.7641C8.80708 28.388 8.53626 27.9179 8.40039 27.4023C8.94039 30.0123 14.6904 30.2523 17.5804 27.7323C17.6061 27.8085 17.6094 27.8905 17.5899 27.9685C17.5704 28.0465 17.5289 28.1172 17.4704 28.1723C16.5144 28.9446 15.385 29.4727 14.1795 29.7114C12.974 29.9501 11.7285 29.8921 10.5504 29.5424V29.5424Z" fill="#5C5C5C"/>
<path d="M17.9701 23.9623C15.7301 21.6423 9.4501 22.9623 8.4801 26.0523C8.40915 26.2556 8.36544 26.4675 8.3501 26.6823V26.6823C7.9701 31.2123 17.3501 30.6223 18.6201 26.5223C18.7428 26.1238 18.7634 25.7008 18.6801 25.2923C18.5847 24.7869 18.3369 24.3228 17.9701 23.9623V23.9623ZM16.8001 26.7523C15.9632 27.4069 14.9841 27.8557 13.9419 28.0624C12.8997 28.2691 11.8235 28.2279 10.8001 27.9423C8.9501 27.3023 8.6601 25.7323 10.1601 24.4323C10.9973 23.7781 11.9759 23.3288 13.0177 23.1205C14.0596 22.9121 15.1357 22.9504 16.1601 23.2323C18.0501 23.8723 18.3301 25.4523 16.8001 26.7523Z" fill="#B7B7B7"/>
<path d="M14.1195 11.0124C14.074 10.9978 14.0251 10.9978 13.9795 11.0124C13.9489 11.0265 13.9217 11.047 13.8995 11.0724C13.7694 11.2028 13.6943 11.3782 13.6895 11.5624L13.5195 26.1524L14.2095 26.3824L14.3795 11.7924C14.3843 11.6082 14.4594 11.4328 14.5895 11.3024L14.6695 11.2424C14.7151 11.2278 14.764 11.2278 14.8095 11.2424L14.1195 11.0124Z" fill="#8E8E8D"/>
<path d="M14.0303 14.8623L13.5603 14.7123C13.5201 14.6909 13.4858 14.66 13.4603 14.6223C13.4182 14.5563 13.3546 14.5069 13.2803 14.4823L13.8003 14.6323C13.8698 14.6606 13.9291 14.7095 13.9703 14.7723C13.9792 14.8084 14.0004 14.8402 14.0303 14.8623Z" fill="#D6D6D6"/>
<path d="M14.0303 14.8623L13.5603 14.7123C13.5201 14.6909 13.4858 14.66 13.4603 14.6223C13.4182 14.5563 13.3546 14.5069 13.2803 14.4823L13.8003 14.6323C13.8698 14.6606 13.9291 14.7095 13.9703 14.7723C13.9804 14.7948 13.9957 14.8146 14.0147 14.8302C14.0338 14.8458 14.0562 14.8568 14.0803 14.8623H14.0303Z" fill="#9A9A9B"/>
<path d="M13.4696 13.9123C13.3423 13.8831 13.2096 13.8881 13.0849 13.9267C12.9603 13.9653 12.848 14.0363 12.7596 14.1323C12.5014 14.3909 12.3079 14.7069 12.1949 15.0544C12.082 15.402 12.0527 15.7713 12.1096 16.1323C12.1443 16.3435 12.1279 16.5599 12.0618 16.7635C11.9957 16.9671 11.8817 17.1518 11.7296 17.3023C11.6771 17.3589 11.6107 17.4007 11.537 17.4235C11.4633 17.4464 11.3848 17.4494 11.3096 17.4323L11.7696 17.5823C11.8448 17.6004 11.9235 17.5979 11.9974 17.5751C12.0714 17.5522 12.1377 17.5098 12.1896 17.4523C12.3428 17.3023 12.4582 17.1179 12.526 16.9145C12.5938 16.711 12.6122 16.4943 12.5796 16.2823C12.5173 15.9221 12.543 15.5521 12.6544 15.2039C12.7658 14.8557 12.9597 14.5395 13.2196 14.2823C13.3067 14.1845 13.4189 14.1124 13.544 14.0736C13.6691 14.0348 13.8024 14.0309 13.9296 14.0623L13.4696 13.9123Z" fill="#8E8E8D"/>
<path d="M11.5797 18.1223L11.1197 17.9623C11.0025 17.9104 10.9011 17.8285 10.8256 17.725C10.7502 17.6214 10.7033 17.4998 10.6897 17.3723C10.6805 17.2964 10.6517 17.2242 10.6061 17.1629C10.5605 17.1015 10.4997 17.0531 10.4297 17.0223L10.8897 17.1823C10.9609 17.2113 11.0228 17.2592 11.0687 17.321C11.1145 17.3827 11.1425 17.4558 11.1497 17.5323C11.1642 17.6595 11.2115 17.7806 11.2869 17.8841C11.3622 17.9875 11.4631 18.0696 11.5797 18.1223V18.1223Z" fill="#D6D6D6"/>
<path d="M11.5797 18.1223L11.1197 17.9623C11.0025 17.9104 10.9011 17.8285 10.8256 17.725C10.7502 17.6214 10.7033 17.4998 10.6897 17.3723C10.6805 17.2964 10.6517 17.2242 10.6061 17.1629C10.5605 17.1015 10.4997 17.0531 10.4297 17.0223L10.8897 17.1823C10.9609 17.2113 11.0228 17.2592 11.0687 17.321C11.1145 17.3827 11.1425 17.4558 11.1497 17.5323C11.1642 17.6595 11.2115 17.7806 11.2869 17.8841C11.3622 17.9875 11.4631 18.0696 11.5797 18.1223V18.1223Z" fill="#8E8E8D"/>
<path d="M13.2201 14.2923C13.6601 13.9023 14.1001 13.9823 14.3001 14.4423C14.3184 14.5096 14.3178 14.5807 14.2984 14.6477C14.279 14.7148 14.2415 14.7751 14.1901 14.8223C14.1756 14.845 14.1557 14.8637 14.1321 14.8766C14.1085 14.8896 14.082 14.8964 14.0551 14.8964C14.0281 14.8964 14.0017 14.8896 13.9781 14.8766C13.9545 14.8637 13.9345 14.845 13.9201 14.8223C13.7901 14.6223 13.5501 14.6123 13.3301 14.8223C13.1788 14.9737 13.0648 15.1582 12.9971 15.3613C12.9294 15.5644 12.9099 15.7804 12.9401 15.9923C13.0011 16.3534 12.9738 16.7238 12.8606 17.0721C12.7474 17.4204 12.5517 17.7361 12.2901 17.9923C12.2119 18.1 12.1017 18.1803 11.9751 18.2215C11.8485 18.2627 11.7122 18.2627 11.5856 18.2216C11.459 18.1806 11.3486 18.1004 11.2704 17.9927C11.1922 17.8851 11.15 17.7554 11.1501 17.6223C11.0701 17.2423 10.7701 17.1423 10.4701 17.4023C10.2336 17.645 10.0918 17.9642 10.0701 18.3023C10.0658 18.4594 10.0095 18.6106 9.91006 18.7323C9.81006 18.8123 9.70006 18.7923 9.69006 18.6423C9.68289 18.3247 9.73936 18.0089 9.85615 17.7135C9.97293 17.4181 10.1477 17.1491 10.3701 16.9223C10.4502 16.8165 10.5611 16.7383 10.6877 16.6983C10.8142 16.6584 10.95 16.6588 11.0763 16.6994C11.2026 16.74 11.3131 16.8189 11.3926 16.9251C11.4721 17.0314 11.5167 17.1597 11.5201 17.2923C11.5193 17.3708 11.5436 17.4475 11.5894 17.5114C11.6351 17.5752 11.7 17.6228 11.7746 17.6473C11.8492 17.6718 11.9297 17.6719 12.0044 17.6476C12.0791 17.6234 12.1441 17.576 12.1901 17.5123C12.3433 17.3623 12.4587 17.1779 12.5265 16.9744C12.5943 16.771 12.6127 16.5543 12.5801 16.3423C12.5092 15.9743 12.5306 15.5945 12.6423 15.2368C12.754 14.8791 12.9525 14.5546 13.2201 14.2923V14.2923Z" fill="#AAAAAA"/>
<path d="M9.80009 18.6823L9.34009 18.5323C9.29009 18.5323 9.27009 18.4723 9.26009 18.4023C9.24943 18.0843 9.3043 17.7675 9.42128 17.4717C9.53826 17.1758 9.71486 16.9071 9.94009 16.6823C10.0279 16.5855 10.1401 16.5139 10.265 16.4752C10.3899 16.4365 10.5229 16.4321 10.6501 16.4623L11.1101 16.6123C10.9829 16.5831 10.8502 16.5881 10.7255 16.6267C10.6008 16.6654 10.4885 16.7363 10.4001 16.8323C10.1777 17.0592 10.003 17.3282 9.88618 17.6236C9.76939 17.919 9.71292 18.2348 9.72009 18.5523C9.70009 18.6323 9.73009 18.6323 9.80009 18.6823Z" fill="#D6D6D6"/>
<path d="M9.80009 18.6823L9.34009 18.5323C9.29009 18.5323 9.27009 18.4723 9.26009 18.4023C9.24943 18.0843 9.3043 17.7675 9.42128 17.4717C9.53826 17.1758 9.71486 16.9071 9.94009 16.6823C10.0279 16.5855 10.1401 16.5139 10.265 16.4752C10.3899 16.4365 10.5229 16.4321 10.6501 16.4623L11.1101 16.6123C10.9829 16.5831 10.8502 16.5881 10.7255 16.6267C10.6008 16.6654 10.4885 16.7363 10.4001 16.8323C10.1777 17.0592 10.003 17.3282 9.88618 17.6236C9.76939 17.919 9.71292 18.2348 9.72009 18.5523C9.72009 18.6223 9.72009 18.6723 9.80009 18.6823Z" fill="#8E8E8D"/>
<path d="M7.98038 16.7024C7.94459 16.601 7.93408 16.4925 7.94976 16.3862C7.96545 16.2799 8.00685 16.179 8.07038 16.0924L8.15038 16.0124C8.17539 15.9823 8.2083 15.9598 8.2454 15.9474C8.28251 15.9351 8.32233 15.9333 8.36037 15.9424L7.67038 15.7124C7.63233 15.7033 7.59251 15.7051 7.5554 15.7174C7.5183 15.7298 7.48539 15.7523 7.46038 15.7824C7.42888 15.8037 7.40173 15.8309 7.38038 15.8624C7.31254 15.9469 7.26845 16.0479 7.25263 16.1551C7.23681 16.2624 7.24984 16.3718 7.29038 16.4724L13.0404 26.8424L13.7304 27.0724L7.98038 16.7024Z" fill="#8E8E8D"/>
<path d="M14.5901 11.3123L14.6701 11.2523C14.8301 11.1823 14.9601 11.3123 14.9501 11.5323L14.8001 26.1323L14.2701 26.6023L13.7501 27.0723L7.98007 16.7023C7.94428 16.601 7.93377 16.4924 7.94945 16.3861C7.96514 16.2798 8.00654 16.179 8.07007 16.0923L8.15007 16.0123C8.16598 15.9853 8.18864 15.963 8.21583 15.9475C8.24301 15.932 8.27377 15.9238 8.30506 15.9238C8.33636 15.9238 8.36712 15.932 8.39431 15.9475C8.42149 15.963 8.44415 15.9853 8.46007 16.0123L14.2101 26.3723L14.3801 11.7823C14.3898 11.6051 14.4645 11.4377 14.5901 11.3123V11.3123Z" fill="#B7B7B7"/>
<path d="M8.40039 27.4023C8.94039 30.0123 14.6904 30.2523 17.5804 27.7423C14.7104 30.2323 8.94039 30.0223 8.40039 27.4023Z" fill="#D6D6D6"/>
<path d="M8.40039 27.4023C8.94039 30.0123 14.6904 30.2523 17.5804 27.7423C14.7104 30.2423 8.94039 30.0323 8.40039 27.4123V27.4023Z" fill="#B7B7B7"/>
<path opacity="0.64" d="M19.99 6.39239C18.963 3.96464 17.0603 2.01202 14.66 0.922387C14.1826 0.704088 13.6875 0.526784 13.18 0.392388C12.5784 0.223137 11.9625 0.109325 11.34 0.0523838C10.6485 -0.0174613 9.9516 -0.0174613 9.26002 0.0523838C8.80506 0.101402 8.354 0.181596 7.91003 0.292389V0.292389C7.11334 0.491263 6.34175 0.779763 5.61002 1.15238C5.091 1.42879 4.59299 1.74297 4.12003 2.09238C3.74347 2.37873 3.38604 2.68939 3.05003 3.02238C2.22183 3.84813 1.54491 4.81274 1.05003 5.87238C0.846832 6.29784 0.669834 6.73533 0.520025 7.18239C0.173136 8.22729 -0.00246382 9.32141 2.61118e-05 10.4224C0.00334406 11.3098 0.117563 12.1933 0.340026 13.0524C0.597074 14.0501 1.00152 15.004 1.54003 15.8824C2.08398 16.7594 2.75838 17.5485 3.54003 18.2224C4.15442 18.7567 4.82502 19.2228 5.54003 19.6124C6.19142 19.9622 6.87876 20.2405 7.59003 20.4424L8.02002 20.5624C8.59002 21.1624 9.02003 25.2424 9.49003 26.7624C9.50722 26.842 9.53409 26.9193 9.57003 26.9924C9.9162 27.4684 10.4075 27.8193 10.97 27.9924C11.9658 28.27 13.0121 28.3152 14.0281 28.1245C15.0441 27.9338 16.0027 27.5122 16.83 26.8924C17.3463 26.5066 17.7024 25.9441 17.83 25.3124C17.83 25.2124 17.24 22.3124 17.21 22.1824C16.74 19.8824 16.51 19.3124 16.71 18.8024C16.9 18.6624 17.11 18.4824 17.3 18.3324C17.7967 17.8953 18.252 17.4133 18.66 16.8924C19.0386 16.4099 19.3733 15.8945 19.66 15.3524C20.1239 14.5063 20.4609 13.5965 20.66 12.6524C21.1075 10.5652 20.9051 8.39108 20.08 6.42239L19.99 6.39239Z" fill="#F9DA58"/>
<g style="mix-blend-mode:screen" opacity="0.81">
<path d="M16.9697 6.82234C16.9806 7.53385 16.791 8.23405 16.4225 8.84282C16.0541 9.45159 15.5217 9.94433 14.8862 10.2647C14.2508 10.585 13.538 10.7199 12.8295 10.6541C12.121 10.5882 11.4453 10.3243 10.8798 9.89234C10.3311 9.4411 9.92814 8.83762 9.72173 8.15786C9.51531 7.47811 9.51462 6.75248 9.71975 6.07234C9.96427 5.43629 10.3551 4.86675 10.8607 4.40984C11.3662 3.95293 11.9723 3.62148 12.6298 3.44233C13.1389 3.36373 13.6587 3.39002 14.1573 3.51959C14.6559 3.64916 15.1227 3.87928 15.5291 4.19581C15.9356 4.51234 16.273 4.9086 16.5207 5.36026C16.7685 5.81193 16.9213 6.30948 16.9697 6.82234V6.82234Z" fill="#FFF4C5"/>
</g>
<path d="M133.62 75.1623C130.96 72.0123 124.85 70.1623 121.78 70.4023C123.71 71.4023 135.99 75.1723 137.08 107.892C137.3 114.372 121.4 118.462 115.39 113.722C116.09 105.542 114.02 97.9623 111.56 90.7223C107.96 80.1823 97.8905 73.4523 97.8905 73.4523C97.8905 73.4523 91.1405 71.4523 88.1305 74.6823C88.1305 74.6823 94.3305 73.5823 103.13 88.3523C111.62 102.522 109.2 112.802 105.5 115.612C90.7405 126.822 79.9805 97.2923 79.9805 97.2923C79.9805 97.2923 89.9805 124.632 91.2805 140.292C91.8205 146.842 89.8305 166.542 89.8305 166.542C89.9814 170.047 90.4669 173.53 91.2805 176.942C91.2805 176.942 107.34 177.232 119.28 177.192C128.73 177.192 139.28 173.912 139.64 171.702C140.96 163.492 142.14 138.542 142.14 138.542C142.69 125.952 143.53 118.282 143.14 108.342C142.8 95.2723 142.17 85.3123 133.62 75.1623Z" fill="#144994"/>
<path d="M118.28 128.552C121.96 139.362 138.8 139.682 141.28 125.832C141.26 125.832 123.96 129.142 118.28 128.552Z" fill="#0B0B28"/>
<path d="M141.22 125.872C140.5 136.302 139.22 151.672 127.48 152.092C121.74 152.302 118.99 148.022 117.89 144.032C116.6 139.362 116.52 134.702 118.28 128.552C118.28 128.552 121.17 132.762 129.14 131.782C140.8 130.362 141.22 125.872 141.22 125.872Z" fill="#062E56"/>
<path d="M108.25 108.632C108.16 111.212 108.03 112.992 107.98 115.252C107.98 116.942 115.79 117.902 115.98 116.192C116.537 113.659 116.712 111.057 116.5 108.472C116.39 107.612 115.83 108.312 112.62 108.072C109.25 107.832 108.28 107.502 108.25 108.632Z" fill="#FFDB28"/>
<path d="M136.8 104.342C136.53 106.843 136.433 109.359 136.51 111.872C136.51 112.432 136.68 112.732 137.46 112.662C139.72 112.452 143.24 111.842 143.35 110.662C143.679 108.388 143.803 106.089 143.72 103.792C143.72 103.232 143.78 102.502 143.16 102.502C142.37 102.502 138.36 103.102 137.5 103.132C136.87 103.142 136.87 103.632 136.8 104.342Z" fill="#FFDB28"/>
<path d="M20.3703 33.9023C19.3703 35.3123 18.7403 37.9023 19.6803 39.5223C28.2403 54.2923 38.9603 73.5223 44.2203 77.2423C49.9903 81.2423 72.2203 92.5723 72.2203 92.5723C72.2203 92.5723 79.8703 94.6623 81.6103 88.1323C83.7103 80.2323 79.9203 78.7123 71.4703 74.6823C61.4703 69.9223 50.3803 63.8623 49.1503 62.0023C45.1503 55.9423 33.1503 43.1223 28.5903 36.2423C27.3803 34.4723 24.4003 28.0223 20.3703 33.9023Z" fill="#E8C5AC"/>
<path d="M53.04 89.4824C62.15 93.8524 93.84 107.052 94.04 85.1024C94.18 71.2924 70.25 75.2824 61.5 69.4424C61.52 69.4424 57.41 82.1824 53.04 89.4824Z" fill="#489AE5"/>
<path d="M20.01 35.2623C17.43 34.2623 16.7799 30.3923 17.4899 28.2623C17.7299 27.5023 11.85 23.8823 13.09 20.8523C13.09 20.8523 14.7599 21.5023 17.67 22.7423C19.3208 23.1823 20.7755 24.1651 21.8 25.5323C25.25 31.1123 26.01 31.8823 25.3 34.0523C24.59 36.2223 22.58 36.2623 20.01 35.2623Z" fill="#E8C5AC"/>
<path d="M6.98047 24.2124C8.37047 26.7724 9.59047 28.2724 11.9805 28.4424C12.2755 28.5008 12.5503 28.6347 12.7781 28.831C13.006 29.0273 13.179 29.2792 13.2805 29.5624C14.3905 32.8424 14.3505 36.1724 12.2805 37.7224C7.54047 41.5524 5.84047 26.9424 7.84047 23.6624L6.98047 24.2124Z" fill="#E8C5AC"/>
<path d="M88.7297 288.632C88.6332 288.62 88.5408 288.586 88.4597 288.532C84.0697 285.382 78.9197 284.732 76.0997 285.712C76.0304 285.76 75.951 285.792 75.8676 285.804C75.7843 285.817 75.6991 285.81 75.6188 285.784C75.5385 285.759 75.4652 285.715 75.4045 285.656C75.3438 285.598 75.2974 285.526 75.2688 285.447C75.2403 285.367 75.2303 285.283 75.2398 285.199C75.2492 285.115 75.2778 285.034 75.3233 284.964C75.3689 284.893 75.4301 284.833 75.5023 284.789C75.5745 284.746 75.6557 284.719 75.7397 284.712C78.7397 283.662 84.1897 284.142 89.0997 287.712C89.2005 287.782 89.2753 287.883 89.3123 287.999C89.3492 288.116 89.3462 288.242 89.3038 288.356C89.2613 288.471 89.1818 288.568 89.0778 288.633C88.9739 288.697 88.8514 288.725 88.7297 288.712V288.632Z" fill="#D5DFEF"/>
<path d="M87.4899 291.632C87.3958 291.623 87.3059 291.589 87.2299 291.532C82.8599 288.402 77.7299 287.742 74.8999 288.712C74.762 288.757 74.6122 288.745 74.483 288.679C74.3538 288.614 74.2557 288.5 74.2099 288.362C74.1652 288.226 74.1757 288.077 74.2393 287.948C74.3028 287.819 74.4143 287.72 74.5499 287.672C77.5499 286.672 82.9799 287.142 87.8699 290.672C87.9721 290.742 88.0478 290.844 88.0849 290.962C88.122 291.08 88.1183 291.207 88.0744 291.322C88.0305 291.438 87.9489 291.535 87.8429 291.599C87.7369 291.662 87.6125 291.688 87.4899 291.672V291.632Z" fill="#D5DFEF"/>
<path d="M85.8004 294.712C85.7027 294.705 85.6092 294.67 85.5304 294.612C81.1704 291.482 76.0304 290.822 73.2104 291.782C73.1416 291.823 73.0647 291.848 72.9852 291.855C72.9058 291.862 72.8257 291.851 72.7508 291.824C72.6758 291.797 72.6079 291.753 72.5519 291.696C72.4959 291.639 72.4532 291.571 72.4268 291.495C72.4004 291.42 72.3911 291.34 72.3994 291.26C72.4078 291.181 72.4336 291.105 72.4751 291.036C72.5166 290.968 72.5726 290.91 72.6392 290.866C72.7058 290.822 72.7814 290.794 72.8604 290.782C75.8604 289.782 81.2904 290.252 86.1704 293.782C86.2712 293.852 86.3459 293.953 86.3829 294.069C86.4198 294.186 86.4169 294.312 86.3744 294.426C86.3319 294.541 86.2525 294.638 86.1485 294.703C86.0445 294.767 85.922 294.795 85.8004 294.782V294.712Z" fill="#D5DFEF"/>
<path d="M105.99 42.2823C106.999 42.0909 108.043 42.2804 108.921 42.8142C109.798 43.3481 110.446 44.1882 110.74 45.1723L111.97 52.6723C111.999 53.1208 111.894 53.5677 111.668 53.956C111.442 54.3443 111.105 54.6564 110.7 54.8523C108.65 55.6423 107.42 53.9323 106.14 52.0523C106.06 51.9423 104.35 49.1223 104.25 48.9623C102.8 46.6323 102.46 42.8623 105.99 42.2823Z" fill="#FFE8D9"/>
<path d="M120.18 81.7524C119.51 81.8924 119.9 84.4924 118.88 86.1324C117.58 83.4624 116.64 81.6324 116 81.8224C111.52 83.1424 107.23 76.2024 103.19 72.4924L102.53 50.9224L120.14 54.0324L120.55 65.0324C120.55 65.0324 120.66 70.1224 120.99 74.6724C121.25 78.1624 122.11 81.3324 120.18 81.7524Z" fill="#E8C5AC"/>
<path d="M111.6 29.4223L97.5996 33.5423L104.71 58.9523C105.4 60.6323 106.2 62.8823 108.18 64.1623C109.62 65.1023 110.61 65.3923 113.36 66.1623C113.36 66.1623 123.65 67.9723 128.36 64.6123C130.27 63.2223 130.3 60.4123 130.5 58.6123C130.6 55.4732 130.426 52.3312 129.98 49.2223L128.4 36.5523L126.17 26.6323L111.6 29.4223Z" fill="#E8C5AC"/>
<path d="M119.53 18.9724C120.68 19.2324 123.68 21.6124 124.46 22.2424C127.64 24.8024 127.46 26.8924 128.06 31.8724C128.28 33.7124 128.37 37.4524 128.46 37.4924C128.55 37.5324 127.6 34.1224 127.17 32.0824C126.11 27.0824 122.49 28.0824 121.28 29.1424C121.22 29.1424 112.22 34.4924 112.19 34.5724C112.16 34.6524 112.91 29.3324 112.39 29.7924C110.19 31.7924 109.39 32.7924 108.63 35.6324C107.78 38.7624 108.41 45.1324 109.19 47.3024L109.83 49.5124C110.16 50.6724 110.47 51.5124 110.2 51.5824C109.559 51.6162 108.92 51.4795 108.349 51.1861C107.779 50.8927 107.296 50.4532 106.95 49.9124C106.346 49.1703 105.517 48.6443 104.588 48.4135C103.66 48.1827 102.681 48.2595 101.8 48.6324C99.2099 49.8024 103.07 55.5323 103.32 55.8123L103.59 57.6824C103.7 59.0124 103.18 62.6824 102.14 61.3324C100.4 58.9824 96.4999 53.8524 95.3399 52.4424C82.6299 37.0224 92.6999 18.5224 111.72 18.8924C111.82 18.8924 113.22 18.4724 111.56 17.6624C114.491 18.3166 117.332 19.324 120.02 20.6624C121.46 21.4124 119.53 18.9724 119.53 18.9724Z" fill="#77541C"/>
<path d="M101.8 47.6323C102.78 47.3237 103.839 47.3903 104.772 47.819C105.705 48.2478 106.446 49.0081 106.85 49.9523L109.62 55.3323C109.62 55.3323 109.79 57.5223 108.51 58.1923C106.51 59.1923 106.25 59.0923 104.2 58.0723C102.976 57.2869 101.854 56.3532 100.86 55.2923C99.14 53.0523 98.36 48.6323 101.8 47.6323Z" fill="#E8C5AC"/>
<path d="M106.91 35.5124C101.35 41.6224 100.71 44.9024 95.4304 51.3724C94.3304 52.7424 92.6804 52.7724 91.2304 51.4624C87.6804 48.2724 82.0304 38.9824 86.1304 26.6724C91.1304 14.6724 105.61 13.3224 111.01 15.3724C112.2 15.8224 115.32 16.8024 116.14 17.7624L106.91 35.5124Z" fill="#EE7D00"/>
<path d="M128.15 4.43233C123.96 3.70233 118.81 11.4323 115.8 16.5323C110.85 24.8223 98.5302 45.1123 92.5202 51.8423C91.8502 52.5923 93.2802 52.4923 94.2602 52.6623C94.7253 52.3703 95.1405 52.0057 95.4902 51.5823C97.0502 49.6723 103.8 40.3823 107.78 34.5123C113.51 26.3723 117.35 23.1523 118.12 22.6323C119.183 21.7219 120.552 21.25 121.95 21.3123C124.19 21.6023 125.06 22.7823 126.09 23.8823C131.9 13.2823 131.18 4.95233 128.15 4.43233Z" fill="#C56700"/>
<path d="M91.8799 180.562C93.8799 191.632 107.54 198.872 112.62 183.402C112.62 183.402 109.81 184.752 102.42 183.582C98.7755 183.108 95.2228 182.09 91.8799 180.562V180.562Z" fill="#0B0B28"/>
<path d="M112.621 183.402C111.561 189.612 110.771 196.222 108.941 202.122C108.32 204.39 106.862 206.338 104.861 207.572C102.86 208.807 100.466 209.236 98.1605 208.772C96.0464 208.489 94.1165 207.42 92.7546 205.778C91.3927 204.137 90.6986 202.042 90.8105 199.912C91.0605 194.212 91.6405 188.912 91.8805 180.562C91.8805 180.562 93.8805 185.242 102.161 186.562C111.431 187.972 112.621 183.402 112.621 183.402Z" fill="#062E56"/>
<path d="M133.14 182.112C133.25 190.022 134.07 200.602 136.14 206.522C137.14 209.252 140.68 206.422 141.47 204.042C142.302 201.142 142.969 198.198 143.47 195.222C144.166 191.036 144.243 186.771 143.7 182.562C143.36 179.062 142.02 177.742 140.2 177.672C139.15 181.122 133.14 182.112 133.14 182.112Z" fill="#062E56"/>
<path d="M133.13 182.152C134.94 183.502 139.29 183.772 141.33 182.862C144.38 181.392 142.69 178.212 140.21 177.532C140.21 177.532 140.24 179.632 133.13 182.152Z" fill="#0B0B28"/>
</svg>
