<svg xmlns="http://www.w3.org/2000/svg" xmlns:xlink="http://www.w3.org/1999/xlink" width="65" height="78" viewBox="0 0 65 78">
    <defs>
        <path id="b" d="M50.37 49.94c-6.416 0-11.623 5.215-11.623 11.645 0 6.427 5.207 11.603 11.624 11.603 6.416 0 11.624-5.216 11.624-11.645 0-6.428-5.208-11.603-11.624-11.603zm-1.655 17.02l-4.641-4.649 1.534-1.537 3.107 3.113 7.508-7.52 1.534 1.536-9.042 9.058z"/>
        <filter id="a" width="147.3%" height="147.3%" x="-23.7%" y="-15.1%" filterUnits="objectBoundingBox">
            <feOffset dy="2" in="SourceAlpha" result="shadowOffsetOuter1"/>
            <feGaussianBlur in="shadowOffsetOuter1" result="shadowBlurOuter1" stdDeviation="1.5"/>
            <feColorMatrix in="shadowBlurOuter1" values="0 0 0 0 0 0 0 0 0 0 0 0 0 0 0 0 0 0 0.5 0"/>
        </filter>
    </defs>
    <g fill="none" fill-rule="evenodd">
        <g>
            <circle cx="30.997" cy="30.997" r="30.997" fill="#353535"/>
            <path fill="#FFF" d="M35.303 20.374v-2.013a4.046 4.046 0 0 0-1.22-2.89 4.213 4.213 0 0 0-2.947-1.195h-.271c-2.301 0-4.168 1.828-4.168 4.085v2.013c-1.05.082-2.097.191-3.143.33v-2.335c.002-1.9.77-3.723 2.14-5.068a7.398 7.398 0 0 1 5.165-2.108h.27a7.4 7.4 0 0 1 5.166 2.106 7.106 7.106 0 0 1 2.143 5.064v2.335a61.798 61.798 0 0 0-3.135-.324zm-14.023 3.21a53.277 53.277 0 0 1 19.432 0l.145.026a1.614 1.614 0 0 1 1.334 1.579V36.16a1.614 1.614 0 0 1-1.334 1.58l-.994.183c-2.923.544-5.892.82-8.867.823-2.974 0-5.941-.273-8.864-.814l-.995-.184a1.614 1.614 0 0 1-1.333-1.58V25.198c0-.773.56-1.436 1.333-1.579l.143-.035zm5.251 7.263l2.858 3.24v-.001a.739.739 0 0 0 1.095 0l4.638-4.972a.708.708 0 0 0-.024-.992l-.828-.797a.743.743 0 0 0-1.003-.03l-3.355 2.928-1.562-1.2a.742.742 0 0 0-.97.059l-.813.799a.711.711 0 0 0-.036.966z"/>
            <text fill="#FFF" font-family="LucidaGrande-Bold, Lucida Grande" font-size="8.395" font-weight="bold">
                <tspan x="17.221" y="47.608">HTTPS</tspan>
            </text>
        </g>
        <g>
            <use fill="#000" filter="url(#a)" xlink:href="#b"/>
            <use fill="#A3FF67" xlink:href="#b"/>
        </g>
    </g>
</svg>
