<svg width="100" height="242" viewBox="0 0 100 242" fill="none" xmlns="http://www.w3.org/2000/svg">
<path d="M31.5412 127.327C31.4133 128.204 31.2328 129.073 31.0007 129.929C30.5531 131.618 31.0007 134.312 29.4213 134.954C28.8698 135.167 28.3716 135.498 27.9616 135.924C27.5517 136.35 27.2398 136.861 27.048 137.42C26.4568 138.864 29.4129 141.516 29.5818 141.736C28.4754 143.518 25.021 144.388 23.8808 144.05C21.9981 143.481 20.4033 142.215 19.4213 140.511C18.7879 139.472 18.0278 134.709 17.9095 133.434C17.5886 131.229 17.5463 130.055 18.6359 128.155C19.9196 125.9 22.597 123.298 23.7034 121.035C24.7085 119.067 31.4314 120.503 32.3436 122.724C32.2591 123.214 31.7524 125.891 31.5412 127.327Z" fill="#F2D3BD"/>
<path d="M22.3945 126.373C22.3945 126.373 31.7864 89.6414 31.7357 83.9827C31.7357 79.557 30.2746 53.1297 30.2746 53.1297C30.2746 53.1297 36.381 41.3054 40.2999 45.2666C44.2188 49.2277 45.1225 72.6651 45.5533 83.9235C46.0685 97.3103 31.2796 125.461 31.2796 125.461L26.0178 123.425L22.3945 126.373Z" fill="#F2D3BD"/>
<path d="M36.2019 42.9186C43.7356 41.5673 46.5734 47.2851 47.2576 51.829C48.1782 57.9017 49.8758 72.0993 49.842 72.3442C49.842 72.3442 51.793 74.2952 42.1478 76.6094C34.8083 78.3661 30.9316 75.7648 30.9316 75.7648C30.1968 72.3358 29.4113 62.9354 29.2931 58.8223C29.0735 50.1821 31.4806 43.7632 36.2019 42.9186Z" fill="#489AE5"/>
<path d="M24.22 135.613C30.9768 131.694 36.3906 145.604 36.4582 167.285C36.5257 188.966 31.2386 209.042 24.4396 212.969C17.6407 216.896 12.269 202.977 12.1846 181.288C12.1001 159.599 17.4211 139.54 24.22 135.613ZM24.4396 212.074C30.6981 208.459 35.7403 188.569 35.6811 167.732C35.622 146.896 30.4785 132.893 24.22 136.483C17.9616 140.072 12.9194 159.988 12.9785 180.824C13.0376 201.66 18.1812 215.672 24.4396 212.074Z" fill="#AB3333"/>
<path d="M23.1622 134.337C29.9189 130.41 35.3412 144.329 35.4003 166.01C35.4595 187.69 30.1808 207.766 23.3818 211.685C16.5828 215.604 11.169 201.702 11.1099 180.004C11.0507 158.307 16.321 138.265 23.1622 134.337ZM23.3818 210.798C29.6402 207.183 34.6824 187.293 34.6233 166.457C34.5642 145.621 29.3868 131.66 23.1622 135.224L22.9595 135.351C16.794 139.261 11.8616 158.949 11.9207 179.557C11.9798 200.393 17.1149 214.413 23.3733 210.807L23.3818 210.798Z" fill="#D60015"/>
<path d="M25.3094 134.599C32.1083 130.461 37.5222 145.173 37.5222 167.977C37.5222 190.781 32.3026 212.04 25.5121 216.178C18.7215 220.317 13.333 205.638 13.2739 182.749C13.2148 159.861 18.5104 138.746 25.3094 134.599ZM25.529 215.275C31.7874 211.457 36.8296 190.469 36.7705 168.484C36.7114 146.499 31.5762 131.727 25.3178 135.545C19.0594 139.363 14.0172 160.376 14.0763 182.335C14.1354 204.295 19.2705 219.101 25.529 215.275Z" fill="#D60015"/>
<path d="M24.22 137.623C30.9768 133.695 36.3906 147.606 36.4582 169.287C36.5257 190.967 31.2386 211.052 24.4396 214.971C17.6407 218.89 12.269 204.979 12.1846 183.29C12.1001 161.601 17.4211 141.542 24.22 137.623ZM24.4396 214.084C30.6981 210.469 35.7403 190.57 35.6811 169.734C35.622 148.898 30.4785 134.895 24.22 138.484C17.9616 142.074 12.9194 162.006 12.9785 182.842C13.0376 203.678 18.1812 217.69 24.4396 214.092V214.084Z" fill="#D60015"/>
<path d="M26.6069 131.111C33.3637 127.184 38.7775 141.102 38.8366 162.783C38.8958 184.464 33.617 204.54 26.8265 208.459C20.036 212.378 14.6475 198.476 14.5884 176.778C14.5293 155.08 19.7826 135.038 26.6069 131.111ZM26.8181 207.572C33.0765 203.957 38.1187 184.058 38.0596 163.231C38.0005 142.403 32.8654 128.383 26.6069 131.981C20.3485 135.579 15.3063 155.503 15.3654 176.33C15.4245 197.158 20.5597 211.187 26.8181 207.58V207.572Z" fill="#AB3333"/>
<path d="M25.5126 129.836C32.2693 125.908 37.6831 139.819 37.7507 161.508C37.8183 183.197 32.5311 203.265 25.6984 207.183C18.8656 211.102 13.5616 197.2 13.5024 175.503C13.4433 153.805 18.7136 133.763 25.5126 129.836ZM25.6984 206.297C31.9568 202.682 36.999 182.783 36.9399 161.956C36.8808 141.128 31.7372 127.108 25.4788 130.706L25.2845 130.824C19.119 134.743 14.1866 154.472 14.2372 175.038C14.2964 195.874 19.4399 209.895 25.6984 206.288V206.297Z" fill="#D60015"/>
<path d="M27.7001 130.097C34.4568 125.959 39.8706 140.638 39.9382 163.51C40.0058 186.381 34.7186 207.572 27.9196 211.71C21.1207 215.849 15.7491 201.17 15.6899 178.281C15.6308 155.393 20.9011 134.236 27.7001 130.097ZM27.9196 210.764C34.1781 206.955 39.2203 185.959 39.1612 163.983C39.102 142.006 33.9585 127.226 27.7001 131.043C21.4416 134.861 16.4078 155.832 16.4585 177.808C16.5092 199.785 21.6612 214.574 27.9196 210.748V210.764Z" fill="#D60015"/>
<path d="M26.6069 133.113C33.3637 129.194 38.7775 143.104 38.8366 164.785C38.8958 186.466 33.617 206.542 26.8265 210.469C20.036 214.396 14.6475 200.477 14.5884 178.788C14.5293 157.099 19.7826 137.04 26.6069 133.113ZM26.8181 209.574C33.0765 205.967 38.1187 186.069 38.0596 165.233C38.0005 144.396 32.8654 130.393 26.6069 133.983C20.3485 137.572 15.3063 157.505 15.3654 178.341C15.4245 199.177 20.5597 213.189 26.8181 209.591V209.574Z" fill="#D60015"/>
<path d="M24.8504 140.537C31.6072 136.618 37.021 150.528 37.0801 172.209C37.1393 193.889 31.869 213.974 25.07 217.893C18.2711 221.812 12.8995 207.901 12.8403 186.212C12.7812 164.523 18.0346 144.472 24.8504 140.537ZM25.07 217.006C31.3285 213.391 36.3707 193.492 36.3116 172.656C36.2524 151.82 31.1089 137.817 24.8504 141.406C18.592 144.996 13.5329 164.928 13.592 185.764C13.6511 206.601 18.7947 220.612 25.0531 217.014L25.07 217.006Z" fill="#AB3333"/>
<path d="M23.7372 139.261C30.4939 135.342 35.9162 149.253 35.9753 170.934C36.0344 192.614 30.7642 212.741 23.9568 216.618C17.1493 220.494 11.7862 206.626 11.7271 184.937C11.6679 163.248 16.9382 143.189 23.7372 139.261ZM23.9568 215.731C30.2152 212.116 35.2574 192.217 35.1983 171.381C35.1392 150.545 29.9956 136.542 23.7456 140.131C17.4956 143.721 12.445 163.628 12.5041 184.464C12.5632 205.3 17.6983 219.312 23.9568 215.714V215.731Z" fill="#89212C"/>
<path d="M25.9266 139.523C32.6833 135.385 38.1056 150.064 38.1648 172.944C38.2239 195.824 32.9452 216.964 26.1547 221.136C19.3641 225.308 13.9756 210.596 13.9165 187.716C13.8574 164.835 19.1276 143.67 25.9266 139.523ZM26.1462 220.199C32.4046 216.389 37.4468 195.393 37.3877 173.417C37.3286 151.44 32.1935 136.651 25.9351 140.477C19.6766 144.303 14.6344 165.258 14.7189 187.243C14.8033 209.227 19.9131 224.008 26.1715 220.182L26.1462 220.199Z" fill="#D60015"/>
<path d="M24.911 141.17C31.71 137.243 37.0816 151.153 37.1491 172.842C37.2167 194.531 31.9296 214.599 25.1306 218.518C18.3316 222.437 12.96 208.518 12.9009 186.837C12.8418 165.156 18.0951 145.097 24.911 141.17ZM25.1306 217.631C31.389 214.016 36.4312 194.118 36.3721 173.29C36.313 152.462 31.1694 138.45 24.9194 142.04C18.6695 145.629 13.6188 165.562 13.6695 186.39C13.7201 207.217 18.8722 221.246 25.1306 217.639V217.631Z" fill="#89212C"/>
<path d="M27.6056 135.114C34.3624 131.187 39.7762 145.106 39.8438 166.787C39.9113 188.467 34.6242 208.543 27.8252 212.462C21.0263 216.381 15.6546 202.479 15.5617 180.781C15.4688 159.084 20.8067 139.042 27.6056 135.114ZM27.8252 211.575C34.0836 207.96 39.1259 188.062 39.0667 167.234C39.0076 146.407 33.8641 132.395 27.6056 135.984C21.3472 139.574 16.305 159.531 16.4063 180.334C16.5077 201.136 21.609 215.19 27.8675 211.584L27.8252 211.575Z" fill="#AB3333"/>
<path d="M26.5405 133.839C33.2973 129.912 38.7111 143.822 38.7702 165.511C38.8294 187.2 33.5506 207.268 26.7601 211.187C19.9696 215.106 14.5811 201.204 14.522 179.506C14.4629 157.809 19.7078 137.766 26.5405 133.839ZM26.7517 210.3C33.0101 206.685 38.0523 186.786 37.9932 165.959C37.9341 145.131 32.799 131.111 26.5405 134.709C20.2821 138.307 15.2399 158.214 15.299 179.042C15.3581 199.869 20.4932 213.889 26.7517 210.291V210.3Z" fill="#89212C"/>
<path d="M28.7028 134.101C35.4595 129.962 40.8734 144.641 40.9325 167.513C40.9916 190.384 35.7129 211.575 28.9224 215.714C22.1319 219.852 16.7518 205.139 16.6842 182.285C16.6167 159.43 21.8954 138.239 28.7028 134.101ZM28.9139 214.768C35.1724 210.959 40.2146 189.971 40.1555 167.986C40.0963 146.001 34.9612 131.229 28.7028 135.047C22.4444 138.864 17.4021 159.844 17.4613 181.82C17.5204 203.797 22.6639 218.594 28.9139 214.759V214.768Z" fill="#D60015"/>
<path d="M27.6056 137.116C34.3624 133.197 39.7762 147.108 39.8438 168.788C39.9113 190.469 34.6242 210.545 27.8252 214.472C21.0263 218.4 15.6546 204.481 15.5617 182.792C15.4688 161.102 20.8067 141.043 27.6056 137.116ZM27.8252 213.577C34.0836 209.971 39.1259 190.072 39.0667 169.236C39.0076 148.4 33.8641 134.396 27.6056 137.986C21.3472 141.575 16.305 161.508 16.4063 182.336C16.5077 203.163 21.609 217.183 27.8675 213.585L27.8252 213.577Z" fill="#89212C"/>
<path d="M24.22 131.66C30.9768 127.733 36.3906 141.643 36.4582 163.332C36.5257 185.021 31.2386 205.089 24.4396 209.008C17.6407 212.927 12.269 199.016 12.1846 177.319C12.1001 155.621 17.4211 135.579 24.22 131.66ZM24.4396 208.121C30.6981 204.506 35.7403 184.607 35.6811 163.78C35.622 142.952 30.4785 128.932 24.22 132.53C17.9616 136.128 12.9194 156.035 12.9785 176.863C13.0376 197.69 18.1812 211.719 24.4396 208.112V208.121Z" fill="#AB3333"/>
<path d="M23.1622 130.376C29.9189 126.449 35.3412 140.359 35.4003 162.048C35.4595 183.737 30.1808 203.805 23.3818 207.724C16.5828 211.643 11.169 197.732 11.1099 176.043C11.0507 154.354 16.321 134.295 23.1622 130.376ZM23.3396 206.829C29.598 203.214 34.6402 183.315 34.5811 162.479C34.522 141.643 29.3868 127.64 23.1284 131.229L22.9257 131.347C16.7602 135.266 11.8278 154.996 11.8869 175.562C11.946 196.398 17.0811 210.41 23.3396 206.812V206.829Z" fill="#D60015"/>
<path d="M25.3075 130.638C32.0642 126.491 37.4865 141.17 37.5456 164.05C37.6047 186.93 32.326 208.104 25.5355 212.251C18.745 216.398 13.3565 201.71 13.2974 178.822C13.2382 155.934 18.5085 134.777 25.3075 130.638ZM25.5271 211.305C31.7855 207.496 36.8277 186.499 36.7686 164.523C36.7095 142.547 31.5744 127.766 25.3159 131.584C19.0575 135.401 14.0153 156.373 14.0744 178.357C14.1335 200.342 19.2686 215.123 25.5271 211.297V211.305Z" fill="#D60015"/>
<path d="M24.22 133.653C30.9768 129.726 36.3906 143.645 36.4582 165.325C36.5257 187.006 31.2386 207.082 24.4396 211.052C17.6407 215.021 12.269 201.018 12.1846 179.329C12.1001 157.64 17.4211 137.572 24.22 133.653ZM24.4396 210.114C30.6981 206.508 35.7403 186.609 35.6811 165.773C35.622 144.937 30.4785 130.934 24.22 134.523C17.9616 138.113 12.9194 158.028 12.9785 178.864C13.0376 199.7 18.1812 213.712 24.4396 210.114Z" fill="#D60015"/>
<path d="M24.8517 136.575C31.6084 132.648 37.0223 146.567 37.0814 168.248C37.1405 189.928 31.8703 210.004 25.0713 213.932C18.2723 217.859 12.8838 203.94 12.8247 182.251C12.7656 160.562 18.0358 140.503 24.8517 136.575ZM25.0713 213.036C31.3297 209.43 36.3719 189.531 36.3128 168.695C36.2537 147.859 31.1101 133.856 24.8517 137.445C18.5933 141.035 13.5342 160.967 13.5933 181.803C13.6524 202.639 18.796 216.651 25.0544 213.053L25.0713 213.036Z" fill="#AB3333"/>
<path d="M23.7372 135.3C30.4939 131.373 35.9162 145.292 35.9753 166.972C36.0344 188.653 30.7642 208.729 23.9568 212.656C17.1493 216.584 11.7862 202.665 11.7271 180.976C11.6679 159.287 16.9382 139.261 23.7372 135.3ZM23.9568 211.761C30.2152 208.146 35.2574 188.256 35.1983 167.42C35.1392 146.584 29.9956 132.581 23.7456 136.17C17.4956 139.76 12.445 159.675 12.5041 180.503C12.5632 201.33 17.6983 215.359 23.9568 211.753V211.761Z" fill="#89212C"/>
<path d="M25.9266 135.562C32.6833 131.423 38.1056 146.102 38.1648 168.974C38.2239 191.846 32.9452 213.036 26.1547 217.175C19.3641 221.313 13.9756 206.634 13.9165 183.746C13.8574 160.857 19.1276 139.709 25.9266 135.562ZM26.1462 216.237C32.4046 212.42 37.4468 191.432 37.3877 169.455C37.3286 147.479 32.1935 132.69 25.9351 136.516C19.6766 140.342 14.6344 161.297 14.7189 183.273C14.8033 205.249 19.9131 220.046 26.1715 216.212L26.1462 216.237Z" fill="#D60015"/>
<path d="M24.8517 138.577C31.6084 134.658 37.0223 148.569 37.0814 170.258C37.1405 191.947 31.8703 212.006 25.0713 215.933C18.2723 219.861 12.8838 205.984 12.8247 184.253C12.7656 162.521 18.0358 142.505 24.8517 138.577ZM25.0713 215.047C31.3297 211.432 36.3719 191.533 36.3128 170.697C36.2537 149.861 31.0932 135.883 24.8517 139.472C18.6102 143.062 13.5342 162.969 13.5933 183.805C13.6524 204.641 18.796 218.653 25.0544 215.055L25.0713 215.047Z" fill="#89212C"/>
<path d="M31.4564 124.582C32.0729 127.564 33.6017 129.65 32.7571 132.775C32.2334 134.548 30.6963 139.219 29.0578 137.065C28.4919 136.364 28.1456 134.633 28.6692 132.251C28.724 131.715 28.6374 131.174 28.4181 130.682C28.1988 130.19 27.8544 129.765 27.4192 129.447C26.0341 128.679 23.8888 129.008 23.9649 128.67C24.5054 126.271 30.6034 125.41 31.5662 125.782L31.4564 124.582Z" fill="#F2D3BD"/>
<g style="mix-blend-mode:multiply" opacity="0.29">
<path d="M94.2016 210.308C94.2016 210.308 91.3891 203.062 78.0023 203.619C61.727 204.295 29.4805 220.342 29.4805 220.342C17.7745 228.704 12.3944 230.849 5.50252 234.844C0.679902 237.631 0.874164 244.607 18.8893 240.976C46.5413 235.393 45.6967 234.278 60.1561 239.861C62.4027 240.705 70.1138 240.418 84.5648 230.376C90.004 226.609 97.4195 218.121 94.2016 210.308Z" fill="#160B01"/>
</g>
<path d="M83.5089 205.393L76.6762 213.087C76.6762 213.087 73.5174 216.626 72.0647 218.45C71.7304 218.939 71.5002 219.491 71.3884 220.072C71.2765 220.653 71.2853 221.251 71.4144 221.829C71.6033 222.707 72.0066 223.525 72.5884 224.21C74.206 224.983 75.9933 225.331 77.7826 225.224C82.9515 225.063 87.1153 220.764 87.1153 220.764C87.7995 220.03 99.3281 210.629 99.3281 210.629C99.2545 209.684 99.119 208.745 98.9227 207.817L97.1744 201.06L83.5089 205.393Z" fill="#EE7D00"/>
<path d="M86.7342 213.324C86.8033 213.372 86.8878 213.394 86.9719 213.385C87.0559 213.375 87.1336 213.336 87.1903 213.273C87.2748 213.18 87.3339 212.994 87.2325 212.918C85.737 211.781 84.0491 210.923 82.2494 210.384C80.9885 210.056 79.655 210.145 78.4488 210.638C78.4077 210.652 78.3699 210.674 78.3379 210.703C78.3058 210.733 78.2803 210.768 78.2628 210.808C78.2453 210.848 78.2363 210.891 78.2363 210.934C78.2364 210.977 78.2454 211.02 78.263 211.06C78.307 211.132 78.376 211.186 78.4569 211.211C78.5378 211.236 78.6251 211.23 78.7021 211.195C79.78 210.78 80.9594 210.706 82.0805 210.984C83.7576 211.483 85.3332 212.275 86.7342 213.324Z" fill="#D5DFEF"/>
<path d="M85.1126 214.945C85.1451 214.973 85.1828 214.993 85.2235 215.006C85.2642 215.019 85.307 215.024 85.3495 215.02C85.3919 215.016 85.4332 215.003 85.4708 214.983C85.5085 214.963 85.5417 214.936 85.5687 214.903C85.6531 214.793 85.7038 214.616 85.5687 214.54C84.0633 213.404 82.3672 212.546 80.5602 212.006C79.2937 211.703 77.964 211.806 76.7596 212.302C76.7178 212.317 76.6798 212.341 76.6478 212.372C76.6159 212.403 76.5908 212.441 76.5741 212.482C76.5574 212.523 76.5495 212.568 76.5509 212.612C76.5523 212.657 76.563 212.701 76.5822 212.741C76.6287 212.81 76.6983 212.861 76.7787 212.884C76.859 212.907 76.945 212.902 77.0214 212.867C78.0939 212.436 79.2723 212.342 80.3998 212.597C82.0953 213.1 83.6902 213.894 85.1126 214.945Z" fill="#D5DFEF"/>
<path d="M83.7535 216.347C83.8236 216.394 83.9092 216.413 83.9925 216.399C84.0758 216.384 84.1505 216.339 84.2011 216.271C84.2771 216.161 84.3278 215.992 84.2011 215.916C82.637 214.869 80.8977 214.111 79.066 213.678C77.7854 213.455 76.4672 213.632 75.2907 214.185C75.2491 214.202 75.2117 214.227 75.1809 214.26C75.1501 214.293 75.1267 214.332 75.1123 214.374C75.0979 214.416 75.0928 214.462 75.0973 214.506C75.1019 214.551 75.1159 214.594 75.1386 214.633C75.1875 214.697 75.2584 214.741 75.3379 214.757C75.4173 214.773 75.4998 214.758 75.5694 214.717C76.6265 214.237 77.803 214.084 78.9477 214.278C80.6587 214.68 82.2854 215.381 83.7535 216.347Z" fill="#D5DFEF"/>
<path d="M71.3457 221.702C71.9454 222.935 75.7714 223.543 77.5028 223.543C86.1936 223.543 96.9284 211.381 97.5872 210.815C99.099 209.489 99.1328 208.78 99.1328 208.78C99.2691 209.429 99.365 210.086 99.4199 210.747C99.4199 210.747 99.7831 212.698 98.9301 213.543C98.246 214.244 91.1852 220.165 89.6396 221.144C89.6396 221.144 83.3474 226.094 77.5619 225.857C75.8136 225.781 73.4656 225.714 72.0889 224.388C71.6985 223.538 71.4475 222.631 71.3457 221.702Z" fill="#D5DFEF"/>
<path d="M21.7861 214.481L16.1611 217.014C16.1611 217.014 4.8436 221.068 2.52097 222.386C1.9641 222.768 1.49058 223.259 1.1291 223.83C0.767612 224.401 0.525675 225.038 0.417935 225.705C0.291246 226.356 0.265906 228.239 0.645972 228.729C1.93247 230.374 3.7355 231.537 5.76421 232.031C9.57332 232.749 17.6392 231.187 17.6392 231.187C18.678 230.705 34.9702 225.562 34.9702 225.562C35.2867 224.525 35.5405 223.47 35.7303 222.403L36.7185 214.422L21.7861 214.481Z" fill="#EE7D00"/>
<path d="M20.6797 223.644C20.7029 223.684 20.7342 223.719 20.7715 223.747C20.8088 223.774 20.8514 223.794 20.8965 223.804C20.9417 223.814 20.9884 223.815 21.034 223.807C21.0795 223.798 21.1227 223.78 21.1611 223.754C21.2878 223.678 21.4144 223.509 21.3131 223.391C20.1516 221.695 18.6922 220.225 17.0057 219.05C15.7988 218.299 14.3871 217.944 12.9685 218.036C12.9192 218.037 12.8705 218.048 12.8259 218.069C12.7812 218.09 12.7415 218.121 12.7095 218.158C12.6775 218.196 12.6539 218.24 12.6404 218.287C12.6268 218.335 12.6235 218.384 12.6307 218.433C12.6589 218.519 12.7152 218.592 12.7904 218.641C12.8656 218.69 12.9552 218.712 13.0445 218.704C14.3177 218.636 15.5814 218.957 16.6678 219.624C18.2296 220.72 19.5874 222.08 20.6797 223.644Z" fill="#D5DFEF"/>
<path d="M18.6533 224.261C18.7051 224.339 18.7849 224.394 18.8762 224.414C18.9674 224.435 19.0631 224.419 19.1432 224.371C19.2783 224.278 19.3881 224.143 19.2952 224.008C18.131 222.314 16.672 220.844 14.9878 219.666C13.7853 218.898 12.365 218.542 10.9422 218.653C10.8954 218.652 10.8491 218.662 10.8064 218.681C10.7638 218.7 10.7258 218.729 10.6952 218.764C10.6647 218.8 10.6422 218.841 10.6294 218.886C10.6166 218.931 10.6138 218.978 10.6212 219.025C10.6377 219.114 10.6885 219.193 10.7627 219.245C10.837 219.297 10.9287 219.318 11.0182 219.303C12.2924 219.237 13.5564 219.561 14.6415 220.232C16.206 221.328 17.5643 222.692 18.6533 224.261Z" fill="#D5DFEF"/>
<path d="M16.744 225.258C16.7662 225.302 16.7972 225.341 16.8351 225.373C16.873 225.405 16.9171 225.429 16.9645 225.443C17.012 225.457 17.0619 225.462 17.1111 225.456C17.1604 225.45 17.2079 225.435 17.2508 225.41C17.3775 225.308 17.4873 225.165 17.4113 225.038C16.2411 223.347 14.7797 221.877 13.0954 220.697C11.885 219.947 10.4709 219.592 9.04979 219.683C9.00147 219.681 8.9533 219.69 8.90887 219.709C8.86445 219.728 8.82493 219.757 8.79325 219.794C8.76158 219.83 8.73857 219.874 8.72596 219.92C8.71334 219.967 8.71144 220.016 8.72039 220.063C8.74188 220.151 8.79326 220.229 8.86571 220.283C8.93815 220.337 9.02714 220.364 9.11735 220.359C10.3964 220.273 11.67 220.593 12.7575 221.271C14.2997 222.368 15.6472 223.716 16.744 225.258Z" fill="#D5DFEF"/>
<path d="M0.36001 225.595C0.461361 227.158 3.51034 228.974 5.42756 229.582C12.0154 231.584 32.0407 225.418 32.9866 225.08C35.1741 224.312 35.5204 223.585 35.5204 223.585C35.3851 224.333 35.2046 225.072 34.9799 225.798C34.9799 225.798 34.5576 228.036 33.2907 228.585C32.2687 229.024 24.338 230.629 22.311 231.119C22.311 231.119 10.5542 233.653 5.01372 232.175C3.08805 231.651 0.985007 230.849 0.0812931 228.856C-0.205868 228.222 0.36001 225.41 0.36001 225.595Z" fill="#D5DFEF"/>
<path d="M39.1595 106.93C39.1595 106.93 24.6409 163.425 23.6274 174.329C22.5125 186.28 14.5649 215.587 14.5649 215.587C13.9906 218.188 16.7946 219.717 20.7051 221.128C30.1899 224.557 35.325 221.972 35.325 221.972C36.4905 221.33 36.2878 221.128 36.5834 220.241C36.5834 220.241 44.0243 184.878 45.4686 172.648C45.8064 169.835 57.3351 138.366 59.3368 128.831C61.3382 119.283 62.4493 109.571 62.656 99.8187L39.1595 106.93Z" fill="#144994"/>
<path d="M41.0098 117.733C44.726 126.28 51.7868 156.018 59.5908 172.749C63.1043 180.292 77.437 207.327 77.437 207.327C78.6448 210.815 84.6161 210.705 86.1701 210.705C87.8593 210.705 97.5383 205.807 97.589 201.339C83.8982 173.89 82.4624 168.036 80.5958 162.53C75.5874 147.656 70.9337 114.768 70.9337 114.768L41.0098 117.733Z" fill="#144994"/>
<path d="M36.9291 44.6669C37.9354 43.5275 39.1873 42.6313 40.5903 42.0461C41.9934 41.4609 43.511 41.2019 45.0287 41.2886C42.0051 43.7548 57.2584 42.6737 57.2584 42.6737C57.2584 42.6737 76.152 54.5993 77.7229 57.0318L71.3462 128.189C71.2364 129.878 73.0354 132.842 71.3462 133.729C71.3462 133.729 67.9679 139.177 57.9257 139.641C43.1031 140.351 34.6909 131.466 34.6909 131.466C34.4544 131.314 36.3801 110.537 35.7213 104.785C30.9663 63.8138 31.5237 50.9929 36.9291 44.6669Z" fill="#3178C5"/>
<path d="M35.2579 46.3561C37.3356 42.8341 42.4116 42.2767 45.0045 42.4794C42.0062 43.5858 33.2309 44.5993 35.714 75.5114C36.1447 80.9675 47.2849 82.1161 51.5923 79.5992C51.0011 72.6904 50.5197 63.6786 52.5889 57.5976C55.6295 48.6871 60.2494 44.6247 60.2494 44.6247C62.6076 45.9068 64.8487 47.3933 66.947 49.0672C66.947 49.0672 61.9301 50.1314 58.1886 57.8003C55.1312 64.0587 55.3592 75.8915 57.2764 79.3121C59.5822 83.4506 75.7392 80.6212 75.7392 80.6212L74.1176 134.194C73.9928 135.567 73.497 136.88 72.6832 137.993C71.8694 139.106 70.7683 139.976 69.4977 140.511C69.4977 140.511 63.5855 140.511 54.1345 140.511H53.0197C45.0383 140.511 33.0113 133.594 33.3069 131.727C34.9961 121.263 33.3998 105.604 33.3998 105.604C32.1667 77.2428 28.8812 57.1246 35.2579 46.3561Z" fill="#144994"/>
<path d="M53.5669 97.1245C50.6193 105.79 37.5197 106.652 34.4031 96.7276C34.2551 96.1045 34.173 95.4675 34.1582 94.8273C34.1582 94.8273 48.795 97.6228 53.5669 97.1245Z" fill="#0B0B28"/>
<path d="M34.221 94.8611C34.8291 103.67 35.9102 116.652 45.8257 117.006C50.6736 117.184 52.9963 113.569 53.9338 110.199C55.0148 106.255 55.0824 102.319 53.5959 97.1246C53.5959 97.1246 47.0081 100.689 39.8544 99.4641C33.5115 98.383 34.221 94.8611 34.221 94.8611Z" fill="#062E56"/>
<path d="M50.7306 79.2445C50.9818 81.1337 51.3571 83.0043 51.854 84.8441C52.1749 86.2293 58.7965 85.4016 58.6107 83.9489C58.465 81.9885 58.137 80.046 57.631 78.1465C57.4451 77.4371 57.0566 78.0874 54.3371 78.2563C51.4739 78.4506 50.6293 78.2816 50.7306 79.2445Z" fill="#FFDB28"/>
<path d="M36.7426 76.9641C36.939 78.7785 37.0096 80.6044 36.9537 82.4286C36.9537 82.834 36.8355 83.0621 36.2612 83.0029C34.6227 82.8509 32.0382 82.4032 31.9875 81.5418C31.7517 79.8919 31.6612 78.2244 31.7173 76.5587C31.7173 76.1533 31.7173 75.6212 32.1311 75.6212C32.545 75.6212 35.6108 76.0604 36.2358 76.0773C36.675 76.0942 36.675 76.432 36.7426 76.9641Z" fill="#FFDB28"/>
<path d="M42.5893 49.5064C43.8815 50.4608 42.5893 56.7614 43.341 58.7969C44.591 57.5723 46.7194 51.1111 47.716 51.0436C52.4457 50.7311 55.1906 45.9169 57.5893 42.851L56.6011 27.7751L42.5133 32.4288C42.5133 32.4288 39.0758 48.2311 42.5893 49.5064Z" fill="#E8C5AC"/>
<path d="M43.7374 10.2751L55.9333 10.3258L56.1275 32.2852C55.9586 33.797 56.0262 35.1568 55.7812 36.4321C55.6307 37.2402 55.3209 38.0103 54.87 38.6976C54.4191 39.3849 53.8359 39.9757 53.1546 40.4355C53.1546 40.4355 50.815 41.7868 48.2475 43.5098C46.7357 44.5233 42.1157 46.1027 39.8607 44.9118C38.5938 44.2277 36.5921 44.5402 34.5735 39.6162C34.4468 39.3206 33.5178 34.8274 33.3995 33.5521L31.9975 19.819L31.4316 11.3731L43.7374 10.2751Z" fill="#FFE1CC"/>
<path d="M32.4545 7.74138C29.7181 10.0725 31.8718 16.0691 31.8718 16.0184C31.9478 13.4339 34.6505 11.7954 35.9089 12.2937C38.3667 13.3072 46.1369 16.6518 47.0069 17.167C49.5407 18.6282 49.9207 22.1248 49.8109 24.042V25.9592C49.8109 26.9643 49.642 28.1045 50.6555 27.9947C51.669 27.8849 51.6099 27.4795 51.8971 26.4153C51.8971 26.4153 53.3075 22.9694 56.0609 23.3663C58.4089 23.7042 56.6521 29.1771 56.5085 29.4643L57.0491 35.4862C57.3193 35.4102 57.5727 34.7852 58.0541 33.7295C60.1741 29.1349 61.517 26.3139 62.1251 24.9119C69.0676 8.82242 56.1116 -3.27212 40.8582 1.36469C37.9866 2.22618 32.4545 7.74138 32.4545 7.74138Z" fill="#A89678"/>
<path d="M55.578 23.1383C54.7209 23.1191 53.8871 23.4185 53.2381 23.9787C52.5891 24.5388 52.1709 25.3197 52.0645 26.1703V32.5048C52.0645 32.5048 52.2249 33.89 53.4074 34.1264C55.2063 34.4896 55.9834 32.9271 56.7857 31.1957C56.8364 31.1028 57.8584 28.5521 57.9175 28.4001C58.7958 26.2379 58.5678 23.1383 55.578 23.1383Z" fill="#FFE1CC"/>
<path d="M18.8904 21.3139C18.7046 20.1399 19.1775 19.7261 20.4867 19.3967L30.0306 16.5335C30.2623 15.2392 30.4286 13.9341 30.5289 12.623C31.3735 4.27848 39.1184 1.55888 44.0423 0.840974L48.6623 0.173765C52.3523 -0.40759 56.1231 0.482551 59.1636 2.65274C62.2041 4.82294 64.2713 8.09979 64.9207 11.7785C65.343 13.8815 65.5879 15.5791 64.0169 15.8072L62.446 16.0352C54.0001 21.3392 41.9562 20.8325 31.1961 20.5706H31.0018L20.8667 22.0403C19.9208 22.2092 19.0171 22.1838 18.8904 21.3139Z" fill="#EE7D00"/>
<path d="M40.4505 142.395C37.3255 149.084 31.4218 149.151 29.8931 143.163C29.4792 141.559 29.9438 138.028 31.709 137.15C31.709 137.15 30.839 141.221 40.4505 142.395Z" fill="#0B0B28"/>
<path d="M31.6088 137.175C30.401 137.623 29.4382 139.228 29.075 141.398C27.4872 150.418 25.4264 159.227 30.9838 160.697C34.4635 161.618 36.8199 158.434 38.1206 155.258C39.7952 151.196 40.5619 146.818 40.3672 142.429C39.1029 143.014 37.7052 143.251 36.3185 143.116C34.9318 142.981 33.6063 142.478 32.4787 141.66C28.5767 139.042 31.6088 137.175 31.6088 137.175Z" fill="#062E56"/>
<path d="M67.1854 143.932C67.3543 151.314 60.057 158.349 56.0368 153.67C54.9641 152.412 53.8155 149.042 55.0148 147.471C55.0148 147.471 61.3155 149.793 67.1854 143.932Z" fill="#0B0B28"/>
<path d="M55.0123 147.471C54.1254 148.408 53.9734 150.275 54.59 152.386C57.1237 161.17 59.2014 169.979 64.8349 168.847C68.3568 168.129 72.5544 166.119 72.2926 160.976C72.0646 156.297 69.1169 146.618 67.2757 143.763C67.2757 143.763 64.2521 151.567 57.8416 150.748C53.1795 150.156 55.0123 147.471 55.0123 147.471Z" fill="#062E56"/>
<path d="M18.8315 21.1703C18.7048 19.819 19.2791 19.3798 20.7909 19.0758C21.0865 18.9997 29.7014 16.542 29.997 16.4998C32.5307 20.4862 50.7233 20.1061 56.6523 18.797C51.1051 21.8067 45.3697 24.4558 39.4817 26.7278C38.2208 27.0101 36.9038 26.901 35.7064 26.4153C31.5932 24.8612 25.5122 21.6264 20.9936 22.1923C19.9463 22.2599 18.9413 22.1754 18.8315 21.1703Z" fill="#C56700"/>
<path d="M66.9959 105.925C66.033 103.028 66.4046 102.496 64.1073 100.216C63.1698 99.3205 61.354 98.8982 59.3438 98.1634C58.7442 97.9438 58.2459 98.6026 58.1445 99.4134C58.0432 100.224 58.93 99.7934 59.8337 101.297C60.4503 102.353 58.9891 103.881 57.832 105.03C59.7239 107.302 66.1513 109.489 66.8692 108.56L66.9959 105.925Z" fill="#F2D3BD"/>
<path d="M67.079 44.1601C73.8357 40.2328 79.2495 54.1516 79.3087 75.8323C79.3678 97.513 74.0891 117.589 67.2985 121.508C60.508 125.427 55.128 111.525 55.0689 89.8272C55.0097 68.1296 60.2378 48.0875 67.079 44.1601ZM67.2901 120.621C73.5485 117.006 78.5908 97.1076 78.5401 76.2799C78.4894 55.4523 73.3374 41.4405 67.079 45.03C60.8205 48.6195 55.7783 68.535 55.8374 89.3627C55.8966 110.19 61.0401 124.219 67.2901 120.613V120.621Z" fill="#AB3333"/>
<path d="M65.9481 42.8848C72.7471 38.9574 78.1271 52.8679 78.1862 74.557C78.2454 96.2461 72.9667 116.314 66.1677 120.233C59.3687 124.151 53.9971 110.249 53.938 88.5857C53.8789 66.9219 59.1491 46.8121 65.9481 42.8848ZM66.1677 119.346C72.4261 115.731 77.4683 95.8322 77.4092 75.0046C77.3501 54.1769 72.2065 40.1567 65.9565 43.7547L65.7538 43.8729C59.5883 47.7918 54.6559 67.4793 54.715 88.0873C54.7741 108.923 59.9093 122.944 66.1677 119.337V119.346Z" fill="#D60015"/>
<path d="M68.138 43.1467C74.937 39.0082 80.317 53.6872 80.3761 76.5588C80.4353 99.4303 75.1566 120.621 68.3576 124.76C61.5586 128.898 56.187 114.219 56.1026 91.3307C56.0181 68.4422 61.339 47.2852 68.138 43.1467ZM68.3576 123.814C74.616 120.005 79.6582 99.0165 79.5991 77.0317C79.54 55.047 74.3964 40.2751 68.1464 44.0926C61.8965 47.9102 56.8458 68.8814 56.9471 90.8577C57.0485 112.834 62.1414 127.631 68.3998 123.797L68.3576 123.814Z" fill="#D60015"/>
<path d="M67.079 46.1619C73.8357 42.243 79.2495 56.1534 79.3087 77.8341C79.3678 99.5148 74.0891 119.591 67.2985 123.518C60.508 127.445 55.128 113.527 55.0689 91.8374C55.0097 70.1483 60.2378 50.0892 67.079 46.1619ZM67.2901 122.623C73.5485 119.016 78.5908 99.1178 78.5401 78.2817C78.4894 57.4456 73.3374 43.4423 67.079 47.0318C60.8205 50.6213 55.7783 70.5283 55.8374 91.3644C55.8966 112.201 61.0401 126.212 67.2901 122.614V122.623Z" fill="#D60015"/>
<path d="M69.4311 39.6585C76.2301 35.7312 81.6101 49.6416 81.6692 71.3307C81.7284 93.0199 76.4497 113.079 69.6169 117.006C62.7842 120.934 57.4463 107.015 57.3872 85.3256C57.3281 63.6365 62.6321 43.5859 69.4311 39.6585ZM69.6169 116.119C75.8753 112.505 80.9175 92.606 80.8584 71.7783C80.7993 50.9507 75.6642 36.9305 69.4058 40.5284C63.1473 44.1264 58.1389 64.0926 58.198 84.878C58.2571 105.663 63.3923 119.734 69.6507 116.128L69.6169 116.119Z" fill="#AB3333"/>
<path d="M68.3395 38.3748C75.0963 34.4559 80.5101 48.3663 80.5692 70.047C80.6283 91.7277 75.3496 111.812 68.5591 115.731C61.7686 119.65 56.3885 105.739 56.321 84.0503C56.2534 62.3612 61.5321 42.3106 68.3395 38.3748ZM68.5591 114.844C74.8091 111.229 79.8513 91.3307 79.8006 70.4946C79.7499 49.6586 74.5979 35.6552 68.3395 39.2447L68.1452 39.3629C61.9797 43.2818 57.0389 63.0115 57.098 83.5774C57.1571 104.413 62.3007 118.425 68.5591 114.827V114.844Z" fill="#D60015"/>
<path d="M70.527 38.6365C77.2837 34.498 82.6976 49.177 82.7567 72.057C82.8158 94.937 77.5371 116.111 70.7466 120.258C63.9561 124.405 58.576 109.7 58.5085 86.8289C58.4409 63.9574 63.7027 42.7834 70.527 38.6365ZM70.7466 119.312C76.9966 115.503 82.0472 94.5063 81.9881 72.53C81.929 50.5537 76.7854 35.7733 70.527 39.5909C64.2686 43.4084 59.2264 64.3797 59.2855 86.3644C59.3446 108.349 64.4882 123.13 70.7466 119.304V119.312Z" fill="#D60015"/>
<path d="M69.4311 41.6602C76.2301 37.7328 81.6101 51.6517 81.6692 73.3324C81.7284 95.0131 76.4497 115.089 69.6169 118.991C62.7842 122.893 57.4463 109 57.3872 87.3104C57.3281 65.6213 62.6321 45.5875 69.4311 41.6602ZM69.6169 118.146C75.8753 114.532 80.9175 94.6415 80.8584 73.8054C80.7993 52.9693 75.6642 38.9659 69.4058 42.5554C63.1473 46.145 58.1051 66.0604 58.1642 86.8965C58.2234 107.733 63.3585 121.744 69.6169 118.146Z" fill="#D60015"/>
<path d="M67.6618 49.0841C74.4185 45.1652 79.8323 59.0756 79.8915 80.7563C79.9506 102.437 74.6803 122.513 67.9236 126.44C61.1668 130.368 55.7108 116.457 55.6432 94.7596C55.5757 73.0621 60.8544 53.0114 67.6618 49.0841ZM67.8814 125.553C74.1313 121.939 79.1736 102.04 79.1144 81.2039C79.0553 60.3678 73.9202 46.3645 67.6618 49.954C61.4033 53.5435 56.3611 73.4506 56.4202 94.2867C56.4794 115.123 61.6229 129.135 67.8814 125.537V125.553Z" fill="#AB3333"/>
<path d="M66.5653 47.8087C73.3643 43.8898 78.7443 57.8003 78.8034 79.4809C78.8626 101.162 73.5838 121.238 66.7849 125.165C59.9859 129.092 54.6143 115.173 54.5552 93.4843C54.4961 71.7952 59.7663 51.7361 66.5653 47.8087ZM66.7849 124.27C73.0433 120.68 78.0602 100.765 78.0602 79.9286C78.0602 59.0925 72.8575 45.0892 66.6075 48.6787C60.3575 52.2682 55.2562 72.2006 55.3322 93.0367C55.4082 113.873 60.5264 127.885 66.7849 124.287V124.27Z" fill="#89212C"/>
<path d="M68.7704 48.0452C75.5693 43.9067 80.9494 58.5857 81.0085 81.4658C81.0676 104.346 75.7889 125.52 68.99 129.658C62.191 133.797 56.8194 119.118 56.7603 96.2377C56.7011 73.3577 61.9545 52.2175 68.7704 48.0452ZM68.99 128.721C75.2484 124.912 80.2906 103.915 80.2315 81.9387C80.1724 59.9624 75.0288 45.1736 68.7788 48.9996C62.5288 52.8256 57.4782 73.7969 57.5373 95.7816C57.5964 117.766 62.7315 132.547 68.99 128.721Z" fill="#D60015"/>
<path d="M67.6645 51.0942C74.4212 47.1669 79.835 61.0773 79.8942 82.7665C79.9533 104.456 74.683 124.523 67.9263 128.442C61.1696 132.361 55.7557 118.459 55.6881 96.7614C55.6206 75.0638 60.8571 55.0216 67.6645 51.0942ZM67.8841 127.555C74.134 123.94 79.1763 104.042 79.1171 83.2141C79.058 62.3865 73.9229 48.3662 67.6645 51.9642C61.406 55.5622 56.3638 75.4692 56.423 96.2968C56.4821 117.124 61.6256 131.153 67.8841 127.547V127.555Z" fill="#89212C"/>
<path d="M70.4579 43.6618C77.2568 39.7345 82.6284 53.6449 82.696 75.334C82.7636 97.0232 77.4764 117.091 70.6775 121.01C63.8785 124.929 58.5069 111.018 58.4478 89.3289C58.3886 67.6398 63.6251 47.5892 70.4579 43.6618ZM70.6775 120.123C76.9359 116.508 81.9781 96.6093 81.919 75.7817C81.8599 54.954 76.7163 40.9338 70.4579 44.5318C64.1994 48.1297 59.1572 68.0368 59.2163 88.8644C59.2755 109.692 64.419 123.721 70.6775 120.114V120.123Z" fill="#AB3333"/>
<path d="M69.3368 42.3781C76.1357 38.4592 81.5158 52.3697 81.5749 74.0503C81.634 95.731 76.3553 115.815 69.5564 119.734C62.7574 123.653 57.3858 109.743 57.3267 88.0537C57.2675 66.3646 62.5378 46.3055 69.3368 42.3781ZM69.5564 118.848C75.8148 115.233 80.857 95.3341 80.7979 74.498C80.7388 53.6619 75.5952 39.6586 69.3452 43.2481C63.0952 46.8376 58.0446 66.7446 58.1037 87.5807C58.1628 108.417 63.2979 122.429 69.5564 118.831V118.848Z" fill="#89212C"/>
<path d="M71.5255 42.6398C78.3245 38.5013 83.7046 53.1803 83.7637 76.0603C83.8228 98.9403 78.5441 120.114 71.7536 124.253C64.9631 128.391 59.5746 113.721 59.4817 90.8322C59.3888 67.9438 64.7266 46.7867 71.5255 42.6398ZM71.7451 123.315C78.0036 119.506 83.0458 98.5096 82.9867 76.5333C82.9276 54.557 77.784 39.7766 71.534 43.5942C65.284 47.4117 60.2334 68.3829 60.3263 90.3592C60.4192 112.336 65.5205 127.124 71.7789 123.298L71.7451 123.315Z" fill="#D60015"/>
<path d="M70.4579 45.6635C77.2568 41.7446 82.6284 55.6551 82.696 77.3357C82.7636 99.0164 77.4764 119.092 70.6775 123.02C63.8785 126.947 58.5069 113.028 58.4478 91.3391C58.3886 69.65 63.6251 49.5909 70.4579 45.6635ZM70.6775 122.125C76.9359 118.518 81.9781 98.6195 81.919 77.7834C81.8599 56.9473 76.7163 42.944 70.4579 46.5335C64.1994 50.123 59.1572 70.03 59.2163 90.8661C59.2755 111.702 64.419 125.714 70.6775 122.116V122.125Z" fill="#89212C"/>
<path d="M65.8814 104.253C65.8814 104.253 79.5892 93.3239 80.9743 88.5435C78.8713 84.6583 65.5352 65.2918 65.5352 65.2918C65.5352 65.2918 67.2243 55.3087 69.7581 53.8307C75.0706 55.5199 87.3172 72.4118 92.9591 82.1583C99.7158 93.7546 66.5487 114.7 66.5487 114.7L69.0233 109.633L65.8814 104.253Z" fill="#F2D3BD"/>
<path d="M66.3714 55.0048C71.971 50.6213 76.7768 54.0842 79.3105 57.5385C82.6889 62.1162 90.2902 73.0115 90.3325 73.248C90.3325 73.248 92.7733 74.0081 85.8646 80.0807C80.6112 84.7091 76.2869 84.2277 76.2869 84.2277C73.1315 80.0071 70.2268 75.6048 67.5876 71.0436C63.6434 64.0926 62.8579 57.7497 66.3714 55.0048Z" fill="#489AE5"/>
<path d="M67.1907 106.221C66.3627 105.924 65.5163 105.682 64.6569 105.494C62.9678 105.114 60.7634 103.467 59.4712 104.557C58.7786 105.14 58.2465 105.401 56.5658 105.157C55.6627 104.91 54.8595 104.387 54.2685 103.662C52.1823 103.814 52.0218 107.809 52.4188 108.923C52.7441 110.236 53.2351 111.502 53.8799 112.69C54.5049 113.729 54.4205 114.734 55.4931 115.435C57.3005 116.744 58.3394 117.336 60.51 117.243C63.1029 117.15 67.5961 114.337 69.0573 113.104C70.7465 111.685 73.2802 109.413 71.6924 107.572C71.1856 107.496 68.559 106.702 67.1907 106.221Z" fill="#F2D3BD"/>
</svg>
